G04 #@! TF.GenerationSoftware,KiCad,Pcbnew,7.0.5*
G04 #@! TF.CreationDate,2023-07-06T16:54:56+01:00*
G04 #@! TF.ProjectId,ffpcbBoard,66667063-6242-46f6-9172-642e6b696361,rev?*
G04 #@! TF.SameCoordinates,Original*
G04 #@! TF.FileFunction,Soldermask,Bot*
G04 #@! TF.FilePolarity,Negative*
%FSLAX46Y46*%
G04 Gerber Fmt 4.6, Leading zero omitted, Abs format (unit mm)*
G04 Created by KiCad (PCBNEW 7.0.5) date 2023-07-06 16:54:56*
%MOMM*%
%LPD*%
G01*
G04 APERTURE LIST*
%ADD10R,1.700000X1.700000*%
%ADD11O,1.700000X1.700000*%
%ADD12C,1.100000*%
%ADD13R,1.730000X2.030000*%
%ADD14O,1.730000X2.030000*%
%ADD15O,2.500000X5.000000*%
%ADD16O,2.250000X4.500000*%
%ADD17O,4.500000X2.250000*%
G04 APERTURE END LIST*
D10*
X218700000Y-52150000D03*
D11*
X218700000Y-54690000D03*
X218700000Y-57230000D03*
X218700000Y-59770000D03*
X218700000Y-62310000D03*
X218700000Y-64850000D03*
X218700000Y-67390000D03*
X218700000Y-69930000D03*
X218700000Y-72470000D03*
X218700000Y-75010000D03*
X218700000Y-77550000D03*
X218700000Y-80090000D03*
X218700000Y-82630000D03*
X218700000Y-85170000D03*
D12*
X119239050Y-118163399D03*
D13*
X114159050Y-120323399D03*
D14*
X116699050Y-120323399D03*
X119239050Y-120323399D03*
X121779050Y-120323399D03*
D15*
X208564918Y-91776700D03*
D16*
X214564918Y-91776700D03*
D17*
X211564918Y-87076700D03*
D12*
X138728650Y-118163399D03*
D13*
X133648650Y-120323399D03*
D14*
X136188650Y-120323399D03*
X138728650Y-120323399D03*
X141268650Y-120323399D03*
D12*
X152330688Y-62544999D03*
D13*
X157410688Y-60384999D03*
D14*
X154870688Y-60384999D03*
X152330688Y-60384999D03*
X149790688Y-60384999D03*
D12*
X96560983Y-62544999D03*
D13*
X101640983Y-60384999D03*
D14*
X99100983Y-60384999D03*
X96560983Y-60384999D03*
X94020983Y-60384999D03*
D12*
X114781251Y-62544999D03*
D13*
X119861251Y-60384999D03*
D14*
X117321251Y-60384999D03*
X114781251Y-60384999D03*
X112241251Y-60384999D03*
D12*
X134196851Y-62544999D03*
D13*
X139276851Y-60384999D03*
D14*
X136736851Y-60384999D03*
X134196851Y-60384999D03*
X131656851Y-60384999D03*
D12*
X170406526Y-62544999D03*
D13*
X175486526Y-60384999D03*
D14*
X172946526Y-60384999D03*
X170406526Y-60384999D03*
X167866526Y-60384999D03*
D12*
X188502051Y-62544999D03*
D13*
X193582051Y-60384999D03*
D14*
X191042051Y-60384999D03*
X188502051Y-60384999D03*
X185962051Y-60384999D03*
D12*
X193186250Y-118163399D03*
D13*
X188106250Y-120323399D03*
D14*
X190646250Y-120323399D03*
X193186250Y-120323399D03*
X195726250Y-120323399D03*
D12*
X175087718Y-118163399D03*
D13*
X170007718Y-120323399D03*
D14*
X172547718Y-120323399D03*
X175087718Y-120323399D03*
X177627718Y-120323399D03*
D12*
X100967984Y-118163399D03*
D13*
X95887984Y-120323399D03*
D14*
X98427984Y-120323399D03*
X100967984Y-120323399D03*
X103507984Y-120323399D03*
D12*
X156969584Y-118163399D03*
D13*
X151889584Y-120323399D03*
D14*
X154429584Y-120323399D03*
X156969584Y-120323399D03*
X159509584Y-120323399D03*
M02*
