%TF.GenerationSoftware,KiCad,Pcbnew,7.0.5*%
%TF.CreationDate,2023-07-06T16:57:14+01:00*%
%TF.ProjectId,ffpcbBoard,66667063-6242-46f6-9172-642e6b696361,rev?*%
%TF.SameCoordinates,Original*%
%TF.FileFunction,Drillmap*%
%TF.FilePolarity,Positive*%
%FSLAX45Y45*%
G04 Gerber Fmt 4.5, Leading zero omitted, Abs format (unit mm)*
G04 Created by KiCad (PCBNEW 7.0.5) date 2023-07-06 16:57:14*
%MOMM*%
%LPD*%
G01*
G04 APERTURE LIST*
%ADD10C,0.100000*%
%ADD11C,0.200000*%
%ADD12C,0.110000*%
G04 APERTURE END LIST*
D10*
X8918492Y-5027310D02*
X22218452Y-5027310D01*
X22218452Y-13037230D01*
X8918492Y-13037230D01*
X8918492Y-5027310D01*
D11*
D12*
X9601098Y-6199500D02*
X9711098Y-6309500D01*
X9711098Y-6199500D02*
X9601098Y-6309500D01*
X10041798Y-11761340D02*
X10151798Y-11871340D01*
X10151798Y-11761340D02*
X10041798Y-11871340D01*
X11423125Y-6199500D02*
X11533125Y-6309500D01*
X11533125Y-6199500D02*
X11423125Y-6309500D01*
X11868905Y-11761340D02*
X11978905Y-11871340D01*
X11978905Y-11761340D02*
X11868905Y-11871340D01*
X13364685Y-6199500D02*
X13474685Y-6309500D01*
X13474685Y-6199500D02*
X13364685Y-6309500D01*
X13817865Y-11761340D02*
X13927865Y-11871340D01*
X13927865Y-11761340D02*
X13817865Y-11871340D01*
X15178069Y-6199500D02*
X15288069Y-6309500D01*
X15288069Y-6199500D02*
X15178069Y-6309500D01*
X15641958Y-11761340D02*
X15751958Y-11871340D01*
X15751958Y-11761340D02*
X15641958Y-11871340D01*
X16985653Y-6199500D02*
X17095653Y-6309500D01*
X17095653Y-6199500D02*
X16985653Y-6309500D01*
X17453772Y-11761340D02*
X17563772Y-11871340D01*
X17563772Y-11761340D02*
X17453772Y-11871340D01*
X18795205Y-6199500D02*
X18905205Y-6309500D01*
X18905205Y-6199500D02*
X18795205Y-6309500D01*
X19263625Y-11761340D02*
X19373625Y-11871340D01*
X19373625Y-11761340D02*
X19263625Y-11871340D01*
D11*
X9174269Y-13353714D02*
X9174269Y-13153714D01*
X9174269Y-13153714D02*
X9221888Y-13153714D01*
X9221888Y-13153714D02*
X9250459Y-13163238D01*
X9250459Y-13163238D02*
X9269507Y-13182285D01*
X9269507Y-13182285D02*
X9279031Y-13201333D01*
X9279031Y-13201333D02*
X9288554Y-13239428D01*
X9288554Y-13239428D02*
X9288554Y-13267999D01*
X9288554Y-13267999D02*
X9279031Y-13306095D01*
X9279031Y-13306095D02*
X9269507Y-13325142D01*
X9269507Y-13325142D02*
X9250459Y-13344190D01*
X9250459Y-13344190D02*
X9221888Y-13353714D01*
X9221888Y-13353714D02*
X9174269Y-13353714D01*
X9374269Y-13353714D02*
X9374269Y-13220380D01*
X9374269Y-13258476D02*
X9383792Y-13239428D01*
X9383792Y-13239428D02*
X9393316Y-13229904D01*
X9393316Y-13229904D02*
X9412364Y-13220380D01*
X9412364Y-13220380D02*
X9431412Y-13220380D01*
X9498078Y-13353714D02*
X9498078Y-13220380D01*
X9498078Y-13153714D02*
X9488554Y-13163238D01*
X9488554Y-13163238D02*
X9498078Y-13172761D01*
X9498078Y-13172761D02*
X9507602Y-13163238D01*
X9507602Y-13163238D02*
X9498078Y-13153714D01*
X9498078Y-13153714D02*
X9498078Y-13172761D01*
X9621888Y-13353714D02*
X9602840Y-13344190D01*
X9602840Y-13344190D02*
X9593316Y-13325142D01*
X9593316Y-13325142D02*
X9593316Y-13153714D01*
X9726650Y-13353714D02*
X9707602Y-13344190D01*
X9707602Y-13344190D02*
X9698078Y-13325142D01*
X9698078Y-13325142D02*
X9698078Y-13153714D01*
X9955221Y-13353714D02*
X9955221Y-13153714D01*
X9955221Y-13153714D02*
X10021888Y-13296571D01*
X10021888Y-13296571D02*
X10088554Y-13153714D01*
X10088554Y-13153714D02*
X10088554Y-13353714D01*
X10269507Y-13353714D02*
X10269507Y-13248952D01*
X10269507Y-13248952D02*
X10259983Y-13229904D01*
X10259983Y-13229904D02*
X10240935Y-13220380D01*
X10240935Y-13220380D02*
X10202840Y-13220380D01*
X10202840Y-13220380D02*
X10183792Y-13229904D01*
X10269507Y-13344190D02*
X10250459Y-13353714D01*
X10250459Y-13353714D02*
X10202840Y-13353714D01*
X10202840Y-13353714D02*
X10183792Y-13344190D01*
X10183792Y-13344190D02*
X10174269Y-13325142D01*
X10174269Y-13325142D02*
X10174269Y-13306095D01*
X10174269Y-13306095D02*
X10183792Y-13287047D01*
X10183792Y-13287047D02*
X10202840Y-13277523D01*
X10202840Y-13277523D02*
X10250459Y-13277523D01*
X10250459Y-13277523D02*
X10269507Y-13267999D01*
X10364745Y-13220380D02*
X10364745Y-13420380D01*
X10364745Y-13229904D02*
X10383792Y-13220380D01*
X10383792Y-13220380D02*
X10421888Y-13220380D01*
X10421888Y-13220380D02*
X10440935Y-13229904D01*
X10440935Y-13229904D02*
X10450459Y-13239428D01*
X10450459Y-13239428D02*
X10459983Y-13258476D01*
X10459983Y-13258476D02*
X10459983Y-13315618D01*
X10459983Y-13315618D02*
X10450459Y-13334666D01*
X10450459Y-13334666D02*
X10440935Y-13344190D01*
X10440935Y-13344190D02*
X10421888Y-13353714D01*
X10421888Y-13353714D02*
X10383792Y-13353714D01*
X10383792Y-13353714D02*
X10364745Y-13344190D01*
X10545697Y-13334666D02*
X10555221Y-13344190D01*
X10555221Y-13344190D02*
X10545697Y-13353714D01*
X10545697Y-13353714D02*
X10536173Y-13344190D01*
X10536173Y-13344190D02*
X10545697Y-13334666D01*
X10545697Y-13334666D02*
X10545697Y-13353714D01*
X10545697Y-13229904D02*
X10555221Y-13239428D01*
X10555221Y-13239428D02*
X10545697Y-13248952D01*
X10545697Y-13248952D02*
X10536173Y-13239428D01*
X10536173Y-13239428D02*
X10545697Y-13229904D01*
X10545697Y-13229904D02*
X10545697Y-13248952D01*
D12*
X8803492Y-13627230D02*
X8913492Y-13737230D01*
X8913492Y-13627230D02*
X8803492Y-13737230D01*
D11*
X9279031Y-13773714D02*
X9164745Y-13773714D01*
X9221888Y-13773714D02*
X9221888Y-13573714D01*
X9221888Y-13573714D02*
X9202840Y-13602285D01*
X9202840Y-13602285D02*
X9183792Y-13621333D01*
X9183792Y-13621333D02*
X9164745Y-13630857D01*
X9364745Y-13754666D02*
X9374269Y-13764190D01*
X9374269Y-13764190D02*
X9364745Y-13773714D01*
X9364745Y-13773714D02*
X9355221Y-13764190D01*
X9355221Y-13764190D02*
X9364745Y-13754666D01*
X9364745Y-13754666D02*
X9364745Y-13773714D01*
X9564745Y-13773714D02*
X9450459Y-13773714D01*
X9507602Y-13773714D02*
X9507602Y-13573714D01*
X9507602Y-13573714D02*
X9488554Y-13602285D01*
X9488554Y-13602285D02*
X9469507Y-13621333D01*
X9469507Y-13621333D02*
X9450459Y-13630857D01*
X9688554Y-13573714D02*
X9707602Y-13573714D01*
X9707602Y-13573714D02*
X9726650Y-13583238D01*
X9726650Y-13583238D02*
X9736173Y-13592761D01*
X9736173Y-13592761D02*
X9745697Y-13611809D01*
X9745697Y-13611809D02*
X9755221Y-13649904D01*
X9755221Y-13649904D02*
X9755221Y-13697523D01*
X9755221Y-13697523D02*
X9745697Y-13735618D01*
X9745697Y-13735618D02*
X9736173Y-13754666D01*
X9736173Y-13754666D02*
X9726650Y-13764190D01*
X9726650Y-13764190D02*
X9707602Y-13773714D01*
X9707602Y-13773714D02*
X9688554Y-13773714D01*
X9688554Y-13773714D02*
X9669507Y-13764190D01*
X9669507Y-13764190D02*
X9659983Y-13754666D01*
X9659983Y-13754666D02*
X9650459Y-13735618D01*
X9650459Y-13735618D02*
X9640935Y-13697523D01*
X9640935Y-13697523D02*
X9640935Y-13649904D01*
X9640935Y-13649904D02*
X9650459Y-13611809D01*
X9650459Y-13611809D02*
X9659983Y-13592761D01*
X9659983Y-13592761D02*
X9669507Y-13583238D01*
X9669507Y-13583238D02*
X9688554Y-13573714D01*
X9879031Y-13573714D02*
X9898078Y-13573714D01*
X9898078Y-13573714D02*
X9917126Y-13583238D01*
X9917126Y-13583238D02*
X9926650Y-13592761D01*
X9926650Y-13592761D02*
X9936173Y-13611809D01*
X9936173Y-13611809D02*
X9945697Y-13649904D01*
X9945697Y-13649904D02*
X9945697Y-13697523D01*
X9945697Y-13697523D02*
X9936173Y-13735618D01*
X9936173Y-13735618D02*
X9926650Y-13754666D01*
X9926650Y-13754666D02*
X9917126Y-13764190D01*
X9917126Y-13764190D02*
X9898078Y-13773714D01*
X9898078Y-13773714D02*
X9879031Y-13773714D01*
X9879031Y-13773714D02*
X9859983Y-13764190D01*
X9859983Y-13764190D02*
X9850459Y-13754666D01*
X9850459Y-13754666D02*
X9840935Y-13735618D01*
X9840935Y-13735618D02*
X9831412Y-13697523D01*
X9831412Y-13697523D02*
X9831412Y-13649904D01*
X9831412Y-13649904D02*
X9840935Y-13611809D01*
X9840935Y-13611809D02*
X9850459Y-13592761D01*
X9850459Y-13592761D02*
X9859983Y-13583238D01*
X9859983Y-13583238D02*
X9879031Y-13573714D01*
X10031412Y-13773714D02*
X10031412Y-13640380D01*
X10031412Y-13659428D02*
X10040935Y-13649904D01*
X10040935Y-13649904D02*
X10059983Y-13640380D01*
X10059983Y-13640380D02*
X10088554Y-13640380D01*
X10088554Y-13640380D02*
X10107602Y-13649904D01*
X10107602Y-13649904D02*
X10117126Y-13668952D01*
X10117126Y-13668952D02*
X10117126Y-13773714D01*
X10117126Y-13668952D02*
X10126650Y-13649904D01*
X10126650Y-13649904D02*
X10145697Y-13640380D01*
X10145697Y-13640380D02*
X10174269Y-13640380D01*
X10174269Y-13640380D02*
X10193316Y-13649904D01*
X10193316Y-13649904D02*
X10202840Y-13668952D01*
X10202840Y-13668952D02*
X10202840Y-13773714D01*
X10298078Y-13773714D02*
X10298078Y-13640380D01*
X10298078Y-13659428D02*
X10307602Y-13649904D01*
X10307602Y-13649904D02*
X10326650Y-13640380D01*
X10326650Y-13640380D02*
X10355221Y-13640380D01*
X10355221Y-13640380D02*
X10374269Y-13649904D01*
X10374269Y-13649904D02*
X10383793Y-13668952D01*
X10383793Y-13668952D02*
X10383793Y-13773714D01*
X10383793Y-13668952D02*
X10393316Y-13649904D01*
X10393316Y-13649904D02*
X10412364Y-13640380D01*
X10412364Y-13640380D02*
X10440935Y-13640380D01*
X10440935Y-13640380D02*
X10459983Y-13649904D01*
X10459983Y-13649904D02*
X10469507Y-13668952D01*
X10469507Y-13668952D02*
X10469507Y-13773714D01*
X10859983Y-13564190D02*
X10688555Y-13821333D01*
X11117126Y-13573714D02*
X11136174Y-13573714D01*
X11136174Y-13573714D02*
X11155221Y-13583238D01*
X11155221Y-13583238D02*
X11164745Y-13592761D01*
X11164745Y-13592761D02*
X11174269Y-13611809D01*
X11174269Y-13611809D02*
X11183793Y-13649904D01*
X11183793Y-13649904D02*
X11183793Y-13697523D01*
X11183793Y-13697523D02*
X11174269Y-13735618D01*
X11174269Y-13735618D02*
X11164745Y-13754666D01*
X11164745Y-13754666D02*
X11155221Y-13764190D01*
X11155221Y-13764190D02*
X11136174Y-13773714D01*
X11136174Y-13773714D02*
X11117126Y-13773714D01*
X11117126Y-13773714D02*
X11098078Y-13764190D01*
X11098078Y-13764190D02*
X11088555Y-13754666D01*
X11088555Y-13754666D02*
X11079031Y-13735618D01*
X11079031Y-13735618D02*
X11069507Y-13697523D01*
X11069507Y-13697523D02*
X11069507Y-13649904D01*
X11069507Y-13649904D02*
X11079031Y-13611809D01*
X11079031Y-13611809D02*
X11088555Y-13592761D01*
X11088555Y-13592761D02*
X11098078Y-13583238D01*
X11098078Y-13583238D02*
X11117126Y-13573714D01*
X11269507Y-13754666D02*
X11279031Y-13764190D01*
X11279031Y-13764190D02*
X11269507Y-13773714D01*
X11269507Y-13773714D02*
X11259983Y-13764190D01*
X11259983Y-13764190D02*
X11269507Y-13754666D01*
X11269507Y-13754666D02*
X11269507Y-13773714D01*
X11402840Y-13573714D02*
X11421888Y-13573714D01*
X11421888Y-13573714D02*
X11440935Y-13583238D01*
X11440935Y-13583238D02*
X11450459Y-13592761D01*
X11450459Y-13592761D02*
X11459983Y-13611809D01*
X11459983Y-13611809D02*
X11469507Y-13649904D01*
X11469507Y-13649904D02*
X11469507Y-13697523D01*
X11469507Y-13697523D02*
X11459983Y-13735618D01*
X11459983Y-13735618D02*
X11450459Y-13754666D01*
X11450459Y-13754666D02*
X11440935Y-13764190D01*
X11440935Y-13764190D02*
X11421888Y-13773714D01*
X11421888Y-13773714D02*
X11402840Y-13773714D01*
X11402840Y-13773714D02*
X11383793Y-13764190D01*
X11383793Y-13764190D02*
X11374269Y-13754666D01*
X11374269Y-13754666D02*
X11364745Y-13735618D01*
X11364745Y-13735618D02*
X11355221Y-13697523D01*
X11355221Y-13697523D02*
X11355221Y-13649904D01*
X11355221Y-13649904D02*
X11364745Y-13611809D01*
X11364745Y-13611809D02*
X11374269Y-13592761D01*
X11374269Y-13592761D02*
X11383793Y-13583238D01*
X11383793Y-13583238D02*
X11402840Y-13573714D01*
X11640935Y-13640380D02*
X11640935Y-13773714D01*
X11593316Y-13564190D02*
X11545697Y-13707047D01*
X11545697Y-13707047D02*
X11669507Y-13707047D01*
X11726650Y-13573714D02*
X11850459Y-13573714D01*
X11850459Y-13573714D02*
X11783793Y-13649904D01*
X11783793Y-13649904D02*
X11812364Y-13649904D01*
X11812364Y-13649904D02*
X11831412Y-13659428D01*
X11831412Y-13659428D02*
X11840935Y-13668952D01*
X11840935Y-13668952D02*
X11850459Y-13687999D01*
X11850459Y-13687999D02*
X11850459Y-13735618D01*
X11850459Y-13735618D02*
X11840935Y-13754666D01*
X11840935Y-13754666D02*
X11831412Y-13764190D01*
X11831412Y-13764190D02*
X11812364Y-13773714D01*
X11812364Y-13773714D02*
X11755221Y-13773714D01*
X11755221Y-13773714D02*
X11736174Y-13764190D01*
X11736174Y-13764190D02*
X11726650Y-13754666D01*
X11917126Y-13573714D02*
X12040935Y-13573714D01*
X12040935Y-13573714D02*
X11974269Y-13649904D01*
X11974269Y-13649904D02*
X12002840Y-13649904D01*
X12002840Y-13649904D02*
X12021888Y-13659428D01*
X12021888Y-13659428D02*
X12031412Y-13668952D01*
X12031412Y-13668952D02*
X12040935Y-13687999D01*
X12040935Y-13687999D02*
X12040935Y-13735618D01*
X12040935Y-13735618D02*
X12031412Y-13754666D01*
X12031412Y-13754666D02*
X12021888Y-13764190D01*
X12021888Y-13764190D02*
X12002840Y-13773714D01*
X12002840Y-13773714D02*
X11945697Y-13773714D01*
X11945697Y-13773714D02*
X11926650Y-13764190D01*
X11926650Y-13764190D02*
X11917126Y-13754666D01*
X12117126Y-13573714D02*
X12117126Y-13611809D01*
X12193316Y-13573714D02*
X12193316Y-13611809D01*
X12488555Y-13849904D02*
X12479031Y-13840380D01*
X12479031Y-13840380D02*
X12459983Y-13811809D01*
X12459983Y-13811809D02*
X12450459Y-13792761D01*
X12450459Y-13792761D02*
X12440936Y-13764190D01*
X12440936Y-13764190D02*
X12431412Y-13716571D01*
X12431412Y-13716571D02*
X12431412Y-13678476D01*
X12431412Y-13678476D02*
X12440936Y-13630857D01*
X12440936Y-13630857D02*
X12450459Y-13602285D01*
X12450459Y-13602285D02*
X12459983Y-13583238D01*
X12459983Y-13583238D02*
X12479031Y-13554666D01*
X12479031Y-13554666D02*
X12488555Y-13545142D01*
X12669507Y-13773714D02*
X12555221Y-13773714D01*
X12612364Y-13773714D02*
X12612364Y-13573714D01*
X12612364Y-13573714D02*
X12593316Y-13602285D01*
X12593316Y-13602285D02*
X12574269Y-13621333D01*
X12574269Y-13621333D02*
X12555221Y-13630857D01*
X12745697Y-13592761D02*
X12755221Y-13583238D01*
X12755221Y-13583238D02*
X12774269Y-13573714D01*
X12774269Y-13573714D02*
X12821888Y-13573714D01*
X12821888Y-13573714D02*
X12840936Y-13583238D01*
X12840936Y-13583238D02*
X12850459Y-13592761D01*
X12850459Y-13592761D02*
X12859983Y-13611809D01*
X12859983Y-13611809D02*
X12859983Y-13630857D01*
X12859983Y-13630857D02*
X12850459Y-13659428D01*
X12850459Y-13659428D02*
X12736174Y-13773714D01*
X12736174Y-13773714D02*
X12859983Y-13773714D01*
X13098078Y-13773714D02*
X13098078Y-13573714D01*
X13183793Y-13773714D02*
X13183793Y-13668952D01*
X13183793Y-13668952D02*
X13174269Y-13649904D01*
X13174269Y-13649904D02*
X13155221Y-13640380D01*
X13155221Y-13640380D02*
X13126650Y-13640380D01*
X13126650Y-13640380D02*
X13107602Y-13649904D01*
X13107602Y-13649904D02*
X13098078Y-13659428D01*
X13307602Y-13773714D02*
X13288555Y-13764190D01*
X13288555Y-13764190D02*
X13279031Y-13754666D01*
X13279031Y-13754666D02*
X13269507Y-13735618D01*
X13269507Y-13735618D02*
X13269507Y-13678476D01*
X13269507Y-13678476D02*
X13279031Y-13659428D01*
X13279031Y-13659428D02*
X13288555Y-13649904D01*
X13288555Y-13649904D02*
X13307602Y-13640380D01*
X13307602Y-13640380D02*
X13336174Y-13640380D01*
X13336174Y-13640380D02*
X13355221Y-13649904D01*
X13355221Y-13649904D02*
X13364745Y-13659428D01*
X13364745Y-13659428D02*
X13374269Y-13678476D01*
X13374269Y-13678476D02*
X13374269Y-13735618D01*
X13374269Y-13735618D02*
X13364745Y-13754666D01*
X13364745Y-13754666D02*
X13355221Y-13764190D01*
X13355221Y-13764190D02*
X13336174Y-13773714D01*
X13336174Y-13773714D02*
X13307602Y-13773714D01*
X13488555Y-13773714D02*
X13469507Y-13764190D01*
X13469507Y-13764190D02*
X13459983Y-13745142D01*
X13459983Y-13745142D02*
X13459983Y-13573714D01*
X13640936Y-13764190D02*
X13621888Y-13773714D01*
X13621888Y-13773714D02*
X13583793Y-13773714D01*
X13583793Y-13773714D02*
X13564745Y-13764190D01*
X13564745Y-13764190D02*
X13555221Y-13745142D01*
X13555221Y-13745142D02*
X13555221Y-13668952D01*
X13555221Y-13668952D02*
X13564745Y-13649904D01*
X13564745Y-13649904D02*
X13583793Y-13640380D01*
X13583793Y-13640380D02*
X13621888Y-13640380D01*
X13621888Y-13640380D02*
X13640936Y-13649904D01*
X13640936Y-13649904D02*
X13650459Y-13668952D01*
X13650459Y-13668952D02*
X13650459Y-13687999D01*
X13650459Y-13687999D02*
X13555221Y-13707047D01*
X13726650Y-13764190D02*
X13745698Y-13773714D01*
X13745698Y-13773714D02*
X13783793Y-13773714D01*
X13783793Y-13773714D02*
X13802840Y-13764190D01*
X13802840Y-13764190D02*
X13812364Y-13745142D01*
X13812364Y-13745142D02*
X13812364Y-13735618D01*
X13812364Y-13735618D02*
X13802840Y-13716571D01*
X13802840Y-13716571D02*
X13783793Y-13707047D01*
X13783793Y-13707047D02*
X13755221Y-13707047D01*
X13755221Y-13707047D02*
X13736174Y-13697523D01*
X13736174Y-13697523D02*
X13726650Y-13678476D01*
X13726650Y-13678476D02*
X13726650Y-13668952D01*
X13726650Y-13668952D02*
X13736174Y-13649904D01*
X13736174Y-13649904D02*
X13755221Y-13640380D01*
X13755221Y-13640380D02*
X13783793Y-13640380D01*
X13783793Y-13640380D02*
X13802840Y-13649904D01*
X13879031Y-13849904D02*
X13888555Y-13840380D01*
X13888555Y-13840380D02*
X13907602Y-13811809D01*
X13907602Y-13811809D02*
X13917126Y-13792761D01*
X13917126Y-13792761D02*
X13926650Y-13764190D01*
X13926650Y-13764190D02*
X13936174Y-13716571D01*
X13936174Y-13716571D02*
X13936174Y-13678476D01*
X13936174Y-13678476D02*
X13926650Y-13630857D01*
X13926650Y-13630857D02*
X13917126Y-13602285D01*
X13917126Y-13602285D02*
X13907602Y-13583238D01*
X13907602Y-13583238D02*
X13888555Y-13554666D01*
X13888555Y-13554666D02*
X13879031Y-13545142D01*
X14240936Y-13849904D02*
X14231412Y-13840380D01*
X14231412Y-13840380D02*
X14212364Y-13811809D01*
X14212364Y-13811809D02*
X14202840Y-13792761D01*
X14202840Y-13792761D02*
X14193317Y-13764190D01*
X14193317Y-13764190D02*
X14183793Y-13716571D01*
X14183793Y-13716571D02*
X14183793Y-13678476D01*
X14183793Y-13678476D02*
X14193317Y-13630857D01*
X14193317Y-13630857D02*
X14202840Y-13602285D01*
X14202840Y-13602285D02*
X14212364Y-13583238D01*
X14212364Y-13583238D02*
X14231412Y-13554666D01*
X14231412Y-13554666D02*
X14240936Y-13545142D01*
X14317126Y-13640380D02*
X14317126Y-13773714D01*
X14317126Y-13659428D02*
X14326650Y-13649904D01*
X14326650Y-13649904D02*
X14345698Y-13640380D01*
X14345698Y-13640380D02*
X14374269Y-13640380D01*
X14374269Y-13640380D02*
X14393317Y-13649904D01*
X14393317Y-13649904D02*
X14402840Y-13668952D01*
X14402840Y-13668952D02*
X14402840Y-13773714D01*
X14526650Y-13773714D02*
X14507602Y-13764190D01*
X14507602Y-13764190D02*
X14498079Y-13754666D01*
X14498079Y-13754666D02*
X14488555Y-13735618D01*
X14488555Y-13735618D02*
X14488555Y-13678476D01*
X14488555Y-13678476D02*
X14498079Y-13659428D01*
X14498079Y-13659428D02*
X14507602Y-13649904D01*
X14507602Y-13649904D02*
X14526650Y-13640380D01*
X14526650Y-13640380D02*
X14555221Y-13640380D01*
X14555221Y-13640380D02*
X14574269Y-13649904D01*
X14574269Y-13649904D02*
X14583793Y-13659428D01*
X14583793Y-13659428D02*
X14593317Y-13678476D01*
X14593317Y-13678476D02*
X14593317Y-13735618D01*
X14593317Y-13735618D02*
X14583793Y-13754666D01*
X14583793Y-13754666D02*
X14574269Y-13764190D01*
X14574269Y-13764190D02*
X14555221Y-13773714D01*
X14555221Y-13773714D02*
X14526650Y-13773714D01*
X14650460Y-13640380D02*
X14726650Y-13640380D01*
X14679031Y-13573714D02*
X14679031Y-13745142D01*
X14679031Y-13745142D02*
X14688555Y-13764190D01*
X14688555Y-13764190D02*
X14707602Y-13773714D01*
X14707602Y-13773714D02*
X14726650Y-13773714D01*
X14945698Y-13640380D02*
X14945698Y-13840380D01*
X14945698Y-13649904D02*
X14964745Y-13640380D01*
X14964745Y-13640380D02*
X15002841Y-13640380D01*
X15002841Y-13640380D02*
X15021888Y-13649904D01*
X15021888Y-13649904D02*
X15031412Y-13659428D01*
X15031412Y-13659428D02*
X15040936Y-13678476D01*
X15040936Y-13678476D02*
X15040936Y-13735618D01*
X15040936Y-13735618D02*
X15031412Y-13754666D01*
X15031412Y-13754666D02*
X15021888Y-13764190D01*
X15021888Y-13764190D02*
X15002841Y-13773714D01*
X15002841Y-13773714D02*
X14964745Y-13773714D01*
X14964745Y-13773714D02*
X14945698Y-13764190D01*
X15155221Y-13773714D02*
X15136174Y-13764190D01*
X15136174Y-13764190D02*
X15126650Y-13745142D01*
X15126650Y-13745142D02*
X15126650Y-13573714D01*
X15317126Y-13773714D02*
X15317126Y-13668952D01*
X15317126Y-13668952D02*
X15307602Y-13649904D01*
X15307602Y-13649904D02*
X15288555Y-13640380D01*
X15288555Y-13640380D02*
X15250460Y-13640380D01*
X15250460Y-13640380D02*
X15231412Y-13649904D01*
X15317126Y-13764190D02*
X15298079Y-13773714D01*
X15298079Y-13773714D02*
X15250460Y-13773714D01*
X15250460Y-13773714D02*
X15231412Y-13764190D01*
X15231412Y-13764190D02*
X15221888Y-13745142D01*
X15221888Y-13745142D02*
X15221888Y-13726095D01*
X15221888Y-13726095D02*
X15231412Y-13707047D01*
X15231412Y-13707047D02*
X15250460Y-13697523D01*
X15250460Y-13697523D02*
X15298079Y-13697523D01*
X15298079Y-13697523D02*
X15317126Y-13687999D01*
X15383793Y-13640380D02*
X15459983Y-13640380D01*
X15412364Y-13573714D02*
X15412364Y-13745142D01*
X15412364Y-13745142D02*
X15421888Y-13764190D01*
X15421888Y-13764190D02*
X15440936Y-13773714D01*
X15440936Y-13773714D02*
X15459983Y-13773714D01*
X15602841Y-13764190D02*
X15583793Y-13773714D01*
X15583793Y-13773714D02*
X15545698Y-13773714D01*
X15545698Y-13773714D02*
X15526650Y-13764190D01*
X15526650Y-13764190D02*
X15517126Y-13745142D01*
X15517126Y-13745142D02*
X15517126Y-13668952D01*
X15517126Y-13668952D02*
X15526650Y-13649904D01*
X15526650Y-13649904D02*
X15545698Y-13640380D01*
X15545698Y-13640380D02*
X15583793Y-13640380D01*
X15583793Y-13640380D02*
X15602841Y-13649904D01*
X15602841Y-13649904D02*
X15612364Y-13668952D01*
X15612364Y-13668952D02*
X15612364Y-13687999D01*
X15612364Y-13687999D02*
X15517126Y-13707047D01*
X15783793Y-13773714D02*
X15783793Y-13573714D01*
X15783793Y-13764190D02*
X15764745Y-13773714D01*
X15764745Y-13773714D02*
X15726650Y-13773714D01*
X15726650Y-13773714D02*
X15707602Y-13764190D01*
X15707602Y-13764190D02*
X15698079Y-13754666D01*
X15698079Y-13754666D02*
X15688555Y-13735618D01*
X15688555Y-13735618D02*
X15688555Y-13678476D01*
X15688555Y-13678476D02*
X15698079Y-13659428D01*
X15698079Y-13659428D02*
X15707602Y-13649904D01*
X15707602Y-13649904D02*
X15726650Y-13640380D01*
X15726650Y-13640380D02*
X15764745Y-13640380D01*
X15764745Y-13640380D02*
X15783793Y-13649904D01*
X15859983Y-13849904D02*
X15869507Y-13840380D01*
X15869507Y-13840380D02*
X15888555Y-13811809D01*
X15888555Y-13811809D02*
X15898079Y-13792761D01*
X15898079Y-13792761D02*
X15907602Y-13764190D01*
X15907602Y-13764190D02*
X15917126Y-13716571D01*
X15917126Y-13716571D02*
X15917126Y-13678476D01*
X15917126Y-13678476D02*
X15907602Y-13630857D01*
X15907602Y-13630857D02*
X15898079Y-13602285D01*
X15898079Y-13602285D02*
X15888555Y-13583238D01*
X15888555Y-13583238D02*
X15869507Y-13554666D01*
X15869507Y-13554666D02*
X15859983Y-13545142D01*
M02*
