G04 #@! TF.GenerationSoftware,KiCad,Pcbnew,7.0.5*
G04 #@! TF.CreationDate,2023-07-06T16:54:56+01:00*
G04 #@! TF.ProjectId,ffpcbBoard,66667063-6242-46f6-9172-642e6b696361,rev?*
G04 #@! TF.SameCoordinates,Original*
G04 #@! TF.FileFunction,Copper,L1,Top*
G04 #@! TF.FilePolarity,Positive*
%FSLAX46Y46*%
G04 Gerber Fmt 4.6, Leading zero omitted, Abs format (unit mm)*
G04 Created by KiCad (PCBNEW 7.0.5) date 2023-07-06 16:54:56*
%MOMM*%
%LPD*%
G01*
G04 APERTURE LIST*
G04 Aperture macros list*
%AMRoundRect*
0 Rectangle with rounded corners*
0 $1 Rounding radius*
0 $2 $3 $4 $5 $6 $7 $8 $9 X,Y pos of 4 corners*
0 Add a 4 corners polygon primitive as box body*
4,1,4,$2,$3,$4,$5,$6,$7,$8,$9,$2,$3,0*
0 Add four circle primitives for the rounded corners*
1,1,$1+$1,$2,$3*
1,1,$1+$1,$4,$5*
1,1,$1+$1,$6,$7*
1,1,$1+$1,$8,$9*
0 Add four rect primitives between the rounded corners*
20,1,$1+$1,$2,$3,$4,$5,0*
20,1,$1+$1,$4,$5,$6,$7,0*
20,1,$1+$1,$6,$7,$8,$9,0*
20,1,$1+$1,$8,$9,$2,$3,0*%
G04 Aperture macros list end*
G04 #@! TA.AperFunction,ComponentPad*
%ADD10R,1.700000X1.700000*%
G04 #@! TD*
G04 #@! TA.AperFunction,ComponentPad*
%ADD11O,1.700000X1.700000*%
G04 #@! TD*
G04 #@! TA.AperFunction,SMDPad,CuDef*
%ADD12R,1.508798X1.850796*%
G04 #@! TD*
G04 #@! TA.AperFunction,SMDPad,CuDef*
%ADD13R,1.850796X1.508798*%
G04 #@! TD*
G04 #@! TA.AperFunction,ComponentPad*
%ADD14R,1.730000X2.030000*%
G04 #@! TD*
G04 #@! TA.AperFunction,ComponentPad*
%ADD15O,1.730000X2.030000*%
G04 #@! TD*
G04 #@! TA.AperFunction,SMDPad,CuDef*
%ADD16RoundRect,0.250000X-0.400000X-0.625000X0.400000X-0.625000X0.400000X0.625000X-0.400000X0.625000X0*%
G04 #@! TD*
G04 #@! TA.AperFunction,SMDPad,CuDef*
%ADD17R,1.738275X2.413000*%
G04 #@! TD*
G04 #@! TA.AperFunction,SMDPad,CuDef*
%ADD18R,1.778000X0.939800*%
G04 #@! TD*
G04 #@! TA.AperFunction,ComponentPad*
%ADD19O,2.500000X5.000000*%
G04 #@! TD*
G04 #@! TA.AperFunction,ComponentPad*
%ADD20O,2.250000X4.500000*%
G04 #@! TD*
G04 #@! TA.AperFunction,ComponentPad*
%ADD21O,4.500000X2.250000*%
G04 #@! TD*
G04 #@! TA.AperFunction,SMDPad,CuDef*
%ADD22RoundRect,0.250000X-0.625000X0.400000X-0.625000X-0.400000X0.625000X-0.400000X0.625000X0.400000X0*%
G04 #@! TD*
G04 #@! TA.AperFunction,SMDPad,CuDef*
%ADD23RoundRect,0.250000X0.400000X0.625000X-0.400000X0.625000X-0.400000X-0.625000X0.400000X-0.625000X0*%
G04 #@! TD*
G04 #@! TA.AperFunction,SMDPad,CuDef*
%ADD24RoundRect,0.250000X0.625000X-0.400000X0.625000X0.400000X-0.625000X0.400000X-0.625000X-0.400000X0*%
G04 #@! TD*
G04 #@! TA.AperFunction,SMDPad,CuDef*
%ADD25R,1.511300X0.457200*%
G04 #@! TD*
G04 #@! TA.AperFunction,SMDPad,CuDef*
%ADD26RoundRect,0.250000X0.650000X-1.000000X0.650000X1.000000X-0.650000X1.000000X-0.650000X-1.000000X0*%
G04 #@! TD*
G04 #@! TA.AperFunction,SMDPad,CuDef*
%ADD27R,1.511300X0.355600*%
G04 #@! TD*
G04 #@! TA.AperFunction,SMDPad,CuDef*
%ADD28RoundRect,0.250000X-0.362500X-0.700000X0.362500X-0.700000X0.362500X0.700000X-0.362500X0.700000X0*%
G04 #@! TD*
G04 #@! TA.AperFunction,SMDPad,CuDef*
%ADD29RoundRect,0.250000X-0.625000X0.375000X-0.625000X-0.375000X0.625000X-0.375000X0.625000X0.375000X0*%
G04 #@! TD*
G04 #@! TA.AperFunction,SMDPad,CuDef*
%ADD30R,1.778000X0.965200*%
G04 #@! TD*
G04 #@! TA.AperFunction,SMDPad,CuDef*
%ADD31R,1.778000X3.251200*%
G04 #@! TD*
G04 #@! TA.AperFunction,SMDPad,CuDef*
%ADD32R,0.355600X1.511300*%
G04 #@! TD*
G04 #@! TA.AperFunction,ViaPad*
%ADD33C,0.800000*%
G04 #@! TD*
G04 #@! TA.AperFunction,Conductor*
%ADD34C,0.381000*%
G04 #@! TD*
G04 #@! TA.AperFunction,Conductor*
%ADD35C,0.800000*%
G04 #@! TD*
G04 #@! TA.AperFunction,Conductor*
%ADD36C,1.000000*%
G04 #@! TD*
G04 APERTURE END LIST*
G04 #@! TA.AperFunction,EtchedComponent*
G36*
X199326918Y-102114500D02*
G01*
X197548918Y-102114500D01*
X197548918Y-98914100D01*
X199326918Y-98914100D01*
X199326918Y-102114500D01*
G37*
G04 #@! TD.AperFunction*
G04 #@! TA.AperFunction,EtchedComponent*
G36*
X214551718Y-121926500D02*
G01*
X212773718Y-121926500D01*
X212773718Y-118726100D01*
X214551718Y-118726100D01*
X214551718Y-121926500D01*
G37*
G04 #@! TD.AperFunction*
D10*
X218700000Y-52150000D03*
D11*
X218700000Y-54690000D03*
X218700000Y-57230000D03*
X218700000Y-59770000D03*
X218700000Y-62310000D03*
X218700000Y-64850000D03*
X218700000Y-67390000D03*
X218700000Y-69930000D03*
X218700000Y-72470000D03*
X218700000Y-75010000D03*
X218700000Y-77550000D03*
X218700000Y-80090000D03*
X218700000Y-82630000D03*
X218700000Y-85170000D03*
D12*
X139683850Y-103605399D03*
X142692646Y-103605399D03*
D13*
X92789184Y-107033401D03*
X92789184Y-110042197D03*
D14*
X114159050Y-120323399D03*
D15*
X116699050Y-120323399D03*
X119239050Y-120323399D03*
X121779050Y-120323399D03*
D12*
X96767738Y-90557500D03*
X99776534Y-90557500D03*
D16*
X184503651Y-73943973D03*
X187603651Y-73943973D03*
D17*
X201433055Y-111131500D03*
X203911181Y-111131500D03*
D18*
X205077518Y-98214300D03*
X205077518Y-100514300D03*
X205077518Y-102814300D03*
D19*
X208564918Y-91776700D03*
D20*
X214564918Y-91776700D03*
D21*
X211564918Y-87076700D03*
D22*
X175537326Y-70925399D03*
X175537326Y-74025399D03*
D23*
X179076118Y-106759799D03*
X175976118Y-106759799D03*
D24*
X116597450Y-109807799D03*
X116597450Y-106707799D03*
D23*
X157893888Y-77250599D03*
X154793888Y-77250599D03*
X169518126Y-71154599D03*
X166418126Y-71154599D03*
X122637318Y-94164300D03*
X119537318Y-94164300D03*
X151543888Y-71306999D03*
X148443888Y-71306999D03*
D16*
X209808918Y-54641900D03*
X212908918Y-54641900D03*
X130259251Y-73846999D03*
X133359251Y-73846999D03*
X209808918Y-67341900D03*
X212908918Y-67341900D03*
D12*
X120255050Y-103508599D03*
X123263846Y-103508599D03*
D16*
X101907184Y-109553799D03*
X105007184Y-109553799D03*
D14*
X133648650Y-120323399D03*
D15*
X136188650Y-120323399D03*
X138728650Y-120323399D03*
X141268650Y-120323399D03*
D24*
X197769918Y-91116900D03*
X197769918Y-88016900D03*
D12*
X200576821Y-119411900D03*
X203585617Y-119411900D03*
D25*
X188900000Y-113100000D03*
X188900000Y-113749998D03*
X188900000Y-114400000D03*
X188900000Y-115049998D03*
X193408500Y-115049998D03*
X193408500Y-114400000D03*
X193408500Y-113749998D03*
X193408500Y-113100000D03*
D13*
X196731651Y-73751371D03*
X196731651Y-70742575D03*
X193274118Y-88646702D03*
X193274118Y-91655498D03*
D14*
X157410688Y-60384999D03*
D15*
X154870688Y-60384999D03*
X152330688Y-60384999D03*
X149790688Y-60384999D03*
D16*
X92521783Y-73897799D03*
X95621783Y-73897799D03*
X209808918Y-72421900D03*
X212908918Y-72421900D03*
D22*
X216337318Y-113848700D03*
X216337318Y-116948700D03*
D14*
X101640983Y-60384999D03*
D15*
X99100983Y-60384999D03*
X96560983Y-60384999D03*
X94020983Y-60384999D03*
D17*
X201382255Y-106915100D03*
X203860381Y-106915100D03*
D16*
X209808918Y-64801900D03*
X212908918Y-64801900D03*
D14*
X119861251Y-60384999D03*
D15*
X117321251Y-60384999D03*
X114781251Y-60384999D03*
X112241251Y-60384999D03*
D24*
X188004650Y-109884599D03*
X188004650Y-106784599D03*
D22*
X191133651Y-70869973D03*
X191133651Y-73969973D03*
D23*
X133410051Y-71154599D03*
X130310051Y-71154599D03*
D16*
X133358650Y-103554599D03*
X136458650Y-103554599D03*
X194074650Y-109604599D03*
X197174650Y-109604599D03*
D13*
X160914518Y-86614702D03*
X160914518Y-83605906D03*
X113893320Y-86360702D03*
X113893320Y-89369498D03*
D24*
X156952118Y-95155500D03*
X156952118Y-92055500D03*
X119887720Y-89719900D03*
X119887720Y-86619900D03*
D16*
X157857984Y-109553799D03*
X160957984Y-109553799D03*
X138739718Y-94316700D03*
X141839718Y-94316700D03*
X139708650Y-109599799D03*
X142808650Y-109599799D03*
D14*
X139276851Y-60384999D03*
D15*
X136736851Y-60384999D03*
X134196851Y-60384999D03*
X131656851Y-60384999D03*
D23*
X113892851Y-71154599D03*
X110792851Y-71154599D03*
D25*
X96834134Y-112998400D03*
X96834134Y-113648398D03*
X96834134Y-114298400D03*
X96834134Y-114948398D03*
X101342634Y-114948398D03*
X101342634Y-114298400D03*
X101342634Y-113648398D03*
X101342634Y-112998400D03*
D24*
X190544650Y-109833799D03*
X190544650Y-106733799D03*
X104342920Y-86875100D03*
X104342920Y-83775100D03*
D14*
X175486526Y-60384999D03*
D15*
X172946526Y-60384999D03*
X170406526Y-60384999D03*
X167866526Y-60384999D03*
D23*
X120293651Y-77199799D03*
X117193651Y-77199799D03*
D22*
X157613888Y-71073172D03*
X157613888Y-74173172D03*
D13*
X178534526Y-73827397D03*
X178534526Y-70818601D03*
D24*
X158018918Y-86666702D03*
X158018918Y-83566702D03*
D22*
X172946526Y-70874599D03*
X172946526Y-73974599D03*
D12*
X133364449Y-77199799D03*
X130355653Y-77199799D03*
D22*
X193673651Y-70869973D03*
X193673651Y-73969973D03*
D25*
X156595333Y-67756171D03*
X156595333Y-67106173D03*
X156595333Y-66456171D03*
X156595333Y-65806173D03*
X152086833Y-65806173D03*
X152086833Y-66456171D03*
X152086833Y-67106173D03*
X152086833Y-67756171D03*
D23*
X212908918Y-74961900D03*
X209808918Y-74961900D03*
X95621783Y-71154599D03*
X92521783Y-71154599D03*
D22*
X136940051Y-70900599D03*
X136940051Y-74000599D03*
D12*
X194120252Y-104019500D03*
X197129048Y-104019500D03*
D16*
X187724650Y-103559399D03*
X190824650Y-103559399D03*
D22*
X117422851Y-70925399D03*
X117422851Y-74025399D03*
D23*
X193963651Y-77148999D03*
X190863651Y-77148999D03*
D26*
X216388118Y-102051500D03*
X216388118Y-106051500D03*
D13*
X166858118Y-106982601D03*
X166858118Y-109991397D03*
D23*
X160957984Y-106708999D03*
X157857984Y-106708999D03*
D27*
X187578168Y-94084100D03*
X187578168Y-94734101D03*
X187578168Y-95384099D03*
X187578168Y-96034101D03*
X187578168Y-96684099D03*
X187578168Y-97334098D03*
X187578168Y-97984099D03*
X187578168Y-98634098D03*
X187578168Y-99284099D03*
X187578168Y-99934098D03*
X193585268Y-99934100D03*
X193585268Y-99284102D03*
X193585268Y-98634101D03*
X193585268Y-97984102D03*
X193585268Y-97334101D03*
X193585268Y-96684102D03*
X193585268Y-96034101D03*
X193585268Y-95384102D03*
X193585268Y-94734101D03*
X193585268Y-94084102D03*
D12*
X113796449Y-77199799D03*
X110787653Y-77199799D03*
D24*
X136127850Y-109853799D03*
X136127850Y-106753799D03*
D16*
X209808918Y-62261900D03*
X212908918Y-62261900D03*
D22*
X139480051Y-70900599D03*
X139480051Y-74000599D03*
D13*
X175138518Y-96583098D03*
X175138518Y-93574302D03*
D22*
X187279718Y-88702700D03*
X187279718Y-91802700D03*
D13*
X160712688Y-73873570D03*
X160712688Y-70864774D03*
X185007450Y-107002203D03*
X185007450Y-110010999D03*
D12*
X200576821Y-116262300D03*
X203585617Y-116262300D03*
D18*
X207023118Y-118026300D03*
X207023118Y-120326300D03*
X207023118Y-122626300D03*
D23*
X123176650Y-106759799D03*
X120076650Y-106759799D03*
D14*
X193582051Y-60384999D03*
D15*
X191042051Y-60384999D03*
X188502051Y-60384999D03*
X185962051Y-60384999D03*
D22*
X99100983Y-70772999D03*
X99100983Y-73872999D03*
D23*
X187603651Y-71149973D03*
X184503651Y-71149973D03*
D16*
X209808918Y-57181900D03*
X212908918Y-57181900D03*
D14*
X188106250Y-120323399D03*
D15*
X190646250Y-120323399D03*
X193186250Y-120323399D03*
X195726250Y-120323399D03*
D16*
X209808918Y-59721900D03*
X212908918Y-59721900D03*
D12*
X157852786Y-103610199D03*
X160861582Y-103610199D03*
D13*
X184072959Y-91421100D03*
X184072959Y-94429896D03*
D12*
X151527481Y-77301399D03*
X148518685Y-77301399D03*
D24*
X154327984Y-109833799D03*
X154327984Y-106733799D03*
D13*
X117042920Y-86360702D03*
X117042920Y-89369498D03*
D12*
X211034516Y-104273500D03*
X208025720Y-104273500D03*
D25*
X115054400Y-112998400D03*
X115054400Y-113648398D03*
X115054400Y-114298400D03*
X115054400Y-114948398D03*
X119562900Y-114948398D03*
X119562900Y-114298400D03*
X119562900Y-113648398D03*
X119562900Y-112998400D03*
D13*
X154158118Y-92050302D03*
X154158118Y-95059098D03*
D28*
X204842618Y-95434300D03*
X201517618Y-95434300D03*
D16*
X110792851Y-73999399D03*
X113892851Y-73999399D03*
D23*
X104956384Y-106810599D03*
X101856384Y-106810599D03*
D12*
X169610518Y-77148999D03*
X166601722Y-77148999D03*
D16*
X95506384Y-103559399D03*
X98606384Y-103559399D03*
D14*
X170007718Y-120323399D03*
D15*
X172547718Y-120323399D03*
X175087718Y-120323399D03*
X177627718Y-120323399D03*
D16*
X166418126Y-73999399D03*
X169518126Y-73999399D03*
D25*
X152693334Y-113049200D03*
X152693334Y-113699198D03*
X152693334Y-114349200D03*
X152693334Y-114999198D03*
X157201834Y-114999198D03*
X157201834Y-114349200D03*
X157201834Y-113699198D03*
X157201834Y-113049200D03*
X134584800Y-113095200D03*
X134584800Y-113745198D03*
X134584800Y-114395200D03*
X134584800Y-115045198D03*
X139093300Y-115045198D03*
X139093300Y-114395200D03*
X139093300Y-113745198D03*
X139093300Y-113095200D03*
D13*
X190226118Y-88646702D03*
X190226118Y-91655498D03*
X111009450Y-106881001D03*
X111009450Y-109889797D03*
D23*
X175817326Y-77199799D03*
X172717326Y-77199799D03*
D22*
X120064451Y-70874599D03*
X120064451Y-73974599D03*
D13*
X181005264Y-91392203D03*
X181005264Y-94400999D03*
D14*
X95887984Y-120323399D03*
D15*
X98427984Y-120323399D03*
X100967984Y-120323399D03*
X103507984Y-120323399D03*
D12*
X203585617Y-122561500D03*
X200576821Y-122561500D03*
D25*
X170801468Y-112998400D03*
X170801468Y-113648398D03*
X170801468Y-114298400D03*
X170801468Y-114948398D03*
X175309968Y-114948398D03*
X175309968Y-114298400D03*
X175309968Y-113648398D03*
X175309968Y-112998400D03*
D13*
X104739783Y-73694599D03*
X104739783Y-70685803D03*
D16*
X209808918Y-69881900D03*
X212908918Y-69881900D03*
D24*
X172446118Y-109782999D03*
X172446118Y-106682999D03*
X178084918Y-95612700D03*
X178084918Y-92512700D03*
D23*
X212908918Y-80041900D03*
X209808918Y-80041900D03*
D16*
X176026918Y-109502999D03*
X179126918Y-109502999D03*
D13*
X154920118Y-83566702D03*
X154920118Y-86575498D03*
X130590650Y-106997403D03*
X130590650Y-110006199D03*
D25*
X192752901Y-67679972D03*
X192752901Y-67029974D03*
X192752901Y-66379972D03*
X192752901Y-65729974D03*
X188244401Y-65729974D03*
X188244401Y-66379972D03*
X188244401Y-67029974D03*
X188244401Y-67679972D03*
D27*
X104609436Y-89929498D03*
X104609436Y-90579499D03*
X104609436Y-91229497D03*
X104609436Y-91879499D03*
X104609436Y-92529497D03*
X104609436Y-93179496D03*
X104609436Y-93829497D03*
X104609436Y-94479496D03*
X104609436Y-95129497D03*
X104609436Y-95779496D03*
X110616536Y-95779498D03*
X110616536Y-95129500D03*
X110616536Y-94479499D03*
X110616536Y-93829500D03*
X110616536Y-93179499D03*
X110616536Y-92529500D03*
X110616536Y-91879499D03*
X110616536Y-91229500D03*
X110616536Y-90579499D03*
X110616536Y-89929500D03*
D24*
X133537050Y-109904599D03*
X133537050Y-106804599D03*
D13*
X148689184Y-106912199D03*
X148689184Y-109920995D03*
D29*
X216337318Y-111566300D03*
X216337318Y-108766300D03*
D25*
X174678370Y-67712871D03*
X174678370Y-67062873D03*
X174678370Y-66412871D03*
X174678370Y-65762873D03*
X170169870Y-65762873D03*
X170169870Y-66412871D03*
X170169870Y-67062873D03*
X170169870Y-67712871D03*
D23*
X101920983Y-77098199D03*
X98820983Y-77098199D03*
D16*
X151507984Y-103559399D03*
X154607984Y-103559399D03*
D13*
X151770518Y-83566702D03*
X151770518Y-86575498D03*
D12*
X176002118Y-103559399D03*
X179010914Y-103559399D03*
D30*
X206977418Y-109136300D03*
X206977418Y-111436300D03*
X206977418Y-113736300D03*
D31*
X213606818Y-111436300D03*
D24*
X114057450Y-109782999D03*
X114057450Y-106682999D03*
D12*
X95626981Y-77047399D03*
X92618185Y-77047399D03*
X187558049Y-77118973D03*
X184549253Y-77118973D03*
X101224518Y-86036300D03*
X98215722Y-86036300D03*
D22*
X101691783Y-70823799D03*
X101691783Y-73923799D03*
D23*
X212908918Y-52101900D03*
X209808918Y-52101900D03*
D22*
X155023088Y-70925399D03*
X155023088Y-74025399D03*
D25*
X100796433Y-67659198D03*
X100796433Y-67009200D03*
X100796433Y-66359198D03*
X100796433Y-65709200D03*
X96287933Y-65709200D03*
X96287933Y-66359198D03*
X96287933Y-67009200D03*
X96287933Y-67659198D03*
D13*
X211562118Y-98298702D03*
X211562118Y-101307498D03*
X208172920Y-98310703D03*
X208172920Y-101319499D03*
D24*
X98377184Y-109833799D03*
X98377184Y-106733799D03*
D16*
X209808918Y-77501900D03*
X212908918Y-77501900D03*
D23*
X197174650Y-106810599D03*
X194074650Y-106810599D03*
D12*
X101952786Y-103610199D03*
X104961582Y-103610199D03*
D25*
X138584701Y-67704309D03*
X138584701Y-67054311D03*
X138584701Y-66404309D03*
X138584701Y-65754311D03*
X134076201Y-65754311D03*
X134076201Y-66404309D03*
X134076201Y-67054311D03*
X134076201Y-67704309D03*
D24*
X151737184Y-109833799D03*
X151737184Y-106733799D03*
D23*
X139810851Y-77148999D03*
X136710851Y-77148999D03*
D32*
X148345518Y-85471150D03*
X147695517Y-85471150D03*
X147045519Y-85471150D03*
X146395517Y-85471150D03*
X145745519Y-85471150D03*
X145095520Y-85471150D03*
X144445519Y-85471150D03*
X143795520Y-85471150D03*
X143145519Y-85471150D03*
X142495520Y-85471150D03*
X142495518Y-91478250D03*
X143145516Y-91478250D03*
X143795517Y-91478250D03*
X144445516Y-91478250D03*
X145095517Y-91478250D03*
X145745516Y-91478250D03*
X146395517Y-91478250D03*
X147045516Y-91478250D03*
X147695517Y-91478250D03*
X148345516Y-91478250D03*
D25*
X118997501Y-67700798D03*
X118997501Y-67050800D03*
X118997501Y-66400798D03*
X118997501Y-65750800D03*
X114489001Y-65750800D03*
X114489001Y-66400798D03*
X114489001Y-67050800D03*
X114489001Y-67700798D03*
D16*
X113879050Y-103508599D03*
X116979050Y-103508599D03*
D13*
X123112451Y-73730197D03*
X123112451Y-70721401D03*
D24*
X95786384Y-109833799D03*
X95786384Y-106733799D03*
X169906118Y-109833799D03*
X169906118Y-106733799D03*
D16*
X120178250Y-109553799D03*
X123278250Y-109553799D03*
D13*
X151059318Y-92050302D03*
X151059318Y-95059098D03*
D23*
X142757850Y-106805799D03*
X139657850Y-106805799D03*
D14*
X151889584Y-120323399D03*
D15*
X154429584Y-120323399D03*
X156969584Y-120323399D03*
X159509584Y-120323399D03*
D16*
X148393088Y-74100999D03*
X151493088Y-74100999D03*
D13*
X142629651Y-73776597D03*
X142629651Y-70767801D03*
D16*
X169575318Y-103559399D03*
X172675318Y-103559399D03*
D12*
X101224518Y-82886700D03*
X98215722Y-82886700D03*
D33*
X202072118Y-88043100D03*
X202072118Y-86993100D03*
X202067856Y-85822344D03*
X202045748Y-84554099D03*
X181072118Y-97143100D03*
X181772118Y-102043100D03*
X203772118Y-93543100D03*
X195943718Y-91093100D03*
X185372118Y-88643100D03*
X202072118Y-89093100D03*
X202080733Y-90201715D03*
X195661718Y-93427700D03*
X202027679Y-83530769D03*
X202072118Y-82293100D03*
X202122118Y-80943100D03*
X198862118Y-84055100D03*
X199624118Y-83394600D03*
X208260118Y-101327100D03*
X190226118Y-91675100D03*
X213606818Y-111436300D03*
X201554518Y-111182300D03*
X203992918Y-106915100D03*
X200538518Y-122561500D03*
X197079874Y-93398056D03*
X154208918Y-95129500D03*
X117023318Y-89389100D03*
X156952118Y-95155500D03*
X138739718Y-94316700D03*
X122637318Y-94164300D03*
X119868118Y-89795500D03*
X148689184Y-109920995D03*
X92618185Y-77047399D03*
X181031318Y-94469100D03*
X92789184Y-110042197D03*
X110787653Y-77199799D03*
X142629651Y-70767801D03*
X104930384Y-103660999D03*
X104739783Y-70685803D03*
X148518685Y-77301399D03*
X160861582Y-103610199D03*
X181031318Y-94469100D03*
X197129048Y-104019500D03*
X130355653Y-77199799D03*
X130590650Y-110006199D03*
X154869318Y-86614702D03*
X179010914Y-103559399D03*
X185007450Y-110010999D03*
X142692646Y-103605399D03*
X166858118Y-109991397D03*
X160712688Y-70864774D03*
X123112451Y-70721401D03*
X178534526Y-70818601D03*
X196731651Y-70646599D03*
X184625651Y-77092599D03*
X99776534Y-90557500D03*
X111009450Y-109960199D03*
X166601722Y-77148999D03*
X123263846Y-103508599D03*
X198026957Y-84604202D03*
X197362089Y-85350496D03*
X196695680Y-86095414D03*
X196170501Y-86945821D03*
X195580618Y-87752694D03*
D34*
X192448618Y-98634101D02*
X193585268Y-98634101D01*
X191575518Y-97761001D02*
X192448618Y-98634101D01*
X190150000Y-93150000D02*
X191575518Y-94575518D01*
X189350000Y-93150000D02*
X190150000Y-93150000D01*
X191575518Y-94575518D02*
X191575518Y-97761001D01*
X188300000Y-92100000D02*
X189350000Y-93150000D01*
X187577018Y-92100000D02*
X188300000Y-92100000D01*
X187279718Y-91802700D02*
X187577018Y-92100000D01*
X220800000Y-84100000D02*
X219330000Y-82630000D01*
X220800000Y-117870218D02*
X220800000Y-84100000D01*
X212908918Y-77501900D02*
X218651900Y-77501900D01*
X218651900Y-72421900D02*
X218700000Y-72470000D01*
X218651900Y-67341900D02*
X218700000Y-67390000D01*
X212908918Y-67341900D02*
X218651900Y-67341900D01*
X218651900Y-64801900D02*
X218700000Y-64850000D01*
X203585617Y-122561500D02*
X203585617Y-123728999D01*
X218651900Y-62261900D02*
X218700000Y-62310000D01*
X212908918Y-80041900D02*
X218651900Y-80041900D01*
X218651900Y-59721900D02*
X218700000Y-59770000D01*
X218651900Y-57181900D02*
X218700000Y-57230000D01*
X212908918Y-57181900D02*
X218651900Y-57181900D01*
X218651900Y-77501900D02*
X218700000Y-77550000D01*
X212908918Y-54641900D02*
X218651900Y-54641900D01*
X218651900Y-52101900D02*
X218700000Y-52150000D01*
X212908918Y-52101900D02*
X218651900Y-52101900D01*
X218651900Y-80041900D02*
X218700000Y-80090000D01*
X219330000Y-82630000D02*
X218700000Y-82630000D01*
X203585617Y-123728999D02*
X204704118Y-124847500D01*
X204704118Y-124847500D02*
X213822718Y-124847500D01*
X212908918Y-62261900D02*
X218651900Y-62261900D01*
X218651900Y-69881900D02*
X218700000Y-69930000D01*
X213822718Y-124847500D02*
X220800000Y-117870218D01*
X212908918Y-59721900D02*
X218651900Y-59721900D01*
X212908918Y-74961900D02*
X218651900Y-74961900D01*
X218651900Y-74961900D02*
X218700000Y-75010000D01*
X218651900Y-54641900D02*
X218700000Y-54690000D01*
X212908918Y-64801900D02*
X218651900Y-64801900D01*
X212908918Y-69881900D02*
X218651900Y-69881900D01*
X212908918Y-72421900D02*
X218651900Y-72421900D01*
X195426033Y-98634101D02*
X208691918Y-85368216D01*
X193585268Y-98634101D02*
X195426033Y-98634101D01*
X208691918Y-85368216D02*
X208691918Y-81158900D01*
X208691918Y-81158900D02*
X209808918Y-80041900D01*
X205727360Y-68087858D02*
X206473318Y-67341900D01*
X205727360Y-83538684D02*
X205727360Y-68087858D01*
X203443700Y-85822344D02*
X205727360Y-83538684D01*
X206473318Y-67341900D02*
X209808918Y-67341900D01*
X202067856Y-85822344D02*
X203443700Y-85822344D01*
X206063318Y-64801900D02*
X209808918Y-64801900D01*
X205146360Y-65718858D02*
X206063318Y-64801900D01*
X205146360Y-83298026D02*
X205146360Y-65718858D01*
X203890287Y-84554099D02*
X205146360Y-83298026D01*
X202045748Y-84554099D02*
X203890287Y-84554099D01*
X205553318Y-62261900D02*
X209808918Y-62261900D01*
X204565360Y-63249858D02*
X205553318Y-62261900D01*
X204091959Y-83530769D02*
X204565360Y-83057368D01*
X204565360Y-83057368D02*
X204565360Y-63249858D01*
X202027679Y-83530769D02*
X204091959Y-83530769D01*
X209758118Y-59671100D02*
X209808918Y-59721900D01*
X205044118Y-59671100D02*
X209758118Y-59671100D01*
X203984360Y-60730858D02*
X205044118Y-59671100D01*
X203984360Y-80380858D02*
X203984360Y-60730858D01*
X202072118Y-82293100D02*
X203984360Y-80380858D01*
X204534118Y-57131100D02*
X209758118Y-57131100D01*
X209758118Y-57131100D02*
X209808918Y-57181900D01*
X203403360Y-58261858D02*
X204534118Y-57131100D01*
X203403360Y-79661858D02*
X203403360Y-58261858D01*
X202122118Y-80943100D02*
X203403360Y-79661858D01*
X203973318Y-54641900D02*
X209808918Y-54641900D01*
X202822360Y-55792858D02*
X203973318Y-54641900D01*
X202822360Y-78681316D02*
X202822360Y-55792858D01*
X198899576Y-82604100D02*
X202822360Y-78681316D01*
X203463318Y-52101900D02*
X209808918Y-52101900D01*
X202241360Y-53323858D02*
X203463318Y-52101900D01*
X169428854Y-82023100D02*
X198658918Y-82023100D01*
X162942254Y-88509700D02*
X169428854Y-82023100D01*
X198658918Y-82023100D02*
X202241360Y-78440658D01*
X145112442Y-88509700D02*
X162942254Y-88509700D01*
X202241360Y-78440658D02*
X202241360Y-53323858D01*
X143795517Y-91478250D02*
X143795517Y-89826625D01*
X143795517Y-89826625D02*
X145112442Y-88509700D01*
X207233318Y-69881900D02*
X209808918Y-69881900D01*
X206308360Y-83779342D02*
X206308360Y-70806858D01*
X203094602Y-86993100D02*
X206308360Y-83779342D01*
X202072118Y-86993100D02*
X203094602Y-86993100D01*
X206308360Y-70806858D02*
X207233318Y-69881900D01*
X206948918Y-73466300D02*
X207993318Y-72421900D01*
X202866260Y-88043100D02*
X206948918Y-83960442D01*
X206948918Y-83960442D02*
X206948918Y-73466300D01*
X207993318Y-72421900D02*
X209808918Y-72421900D01*
X202072118Y-88043100D02*
X202866260Y-88043100D01*
X208503318Y-74961900D02*
X209808918Y-74961900D01*
X207529918Y-84201100D02*
X207529918Y-75935300D01*
X202637918Y-89093100D02*
X207529918Y-84201100D01*
X207529918Y-75935300D02*
X208503318Y-74961900D01*
X202072118Y-89093100D02*
X202637918Y-89093100D01*
X208110918Y-79199900D02*
X209808918Y-77501900D01*
X208110918Y-84788500D02*
X208110918Y-79199900D01*
X202697703Y-90201715D02*
X208110918Y-84788500D01*
X202080733Y-90201715D02*
X202697703Y-90201715D01*
X120472118Y-64276183D02*
X118997501Y-65750800D01*
X120472118Y-63993066D02*
X120472118Y-64276183D01*
X120472118Y-60995866D02*
X120472118Y-63993066D01*
X119861251Y-60384999D02*
X120472118Y-60995866D01*
X181072118Y-96043900D02*
X181072118Y-97143100D01*
X181072118Y-96043900D02*
X178516118Y-96043900D01*
X182352118Y-96043900D02*
X181072118Y-96043900D01*
X179616818Y-112998400D02*
X181772118Y-110843100D01*
X181772118Y-110843100D02*
X181772118Y-102043100D01*
X175309968Y-112998400D02*
X179616818Y-112998400D01*
X204842618Y-94613600D02*
X203772118Y-93543100D01*
X204842618Y-95434300D02*
X204842618Y-94613600D01*
X195943718Y-91093100D02*
X195967518Y-91116900D01*
X195967518Y-91116900D02*
X197769918Y-91116900D01*
X187220118Y-88643100D02*
X187279718Y-88702700D01*
X185372118Y-88643100D02*
X187220118Y-88643100D01*
X195687118Y-94215100D02*
X195687118Y-93453100D01*
X195687118Y-93453100D02*
X195661718Y-93427700D01*
X194518116Y-95384102D02*
X195687118Y-94215100D01*
X193585268Y-95384102D02*
X194518116Y-95384102D01*
X119537318Y-94139500D02*
X119537318Y-94164300D01*
X121216319Y-92460499D02*
X119537318Y-94139500D01*
X158990518Y-99034700D02*
X136294344Y-99034700D01*
X194499024Y-86671100D02*
X171354118Y-86671100D01*
X171354118Y-86671100D02*
X158990518Y-99034700D01*
X129720143Y-92460499D02*
X121216319Y-92460499D01*
X195580618Y-87752694D02*
X194499024Y-86671100D01*
X136294344Y-99034700D02*
X129720143Y-92460499D01*
X195314780Y-86090100D02*
X171113460Y-86090100D01*
X196170501Y-86945821D02*
X195314780Y-86090100D01*
X136535002Y-98453700D02*
X129960801Y-91879499D01*
X171113460Y-86090100D02*
X158749860Y-98453700D01*
X158749860Y-98453700D02*
X136535002Y-98453700D01*
X129960801Y-91879499D02*
X110616536Y-91879499D01*
X130132460Y-91229500D02*
X110616536Y-91229500D01*
X136775660Y-97872700D02*
X130132460Y-91229500D01*
X170872802Y-85509100D02*
X158509202Y-97872700D01*
X196695680Y-85794000D02*
X196410780Y-85509100D01*
X196695680Y-86095414D02*
X196695680Y-85794000D01*
X196410780Y-85509100D02*
X170872802Y-85509100D01*
X158509202Y-97872700D02*
X136775660Y-97872700D01*
X146395517Y-94936099D02*
X146395517Y-91478250D01*
X148751118Y-97291700D02*
X146395517Y-94936099D01*
X158268544Y-97291700D02*
X148751118Y-97291700D01*
X197069938Y-85346600D02*
X196651438Y-84928100D01*
X170632144Y-84928100D02*
X158268544Y-97291700D01*
X197358193Y-85346600D02*
X197069938Y-85346600D01*
X196651438Y-84928100D02*
X170632144Y-84928100D01*
X197362089Y-85350496D02*
X197358193Y-85346600D01*
X197465118Y-88016900D02*
X197769918Y-88016900D01*
X195293118Y-90188900D02*
X197465118Y-88016900D01*
X145593758Y-89671700D02*
X145095517Y-90169941D01*
X163423570Y-89671700D02*
X145593758Y-89671700D01*
X169910170Y-83185100D02*
X163423570Y-89671700D01*
X199414618Y-83185100D02*
X169910170Y-83185100D01*
X199624118Y-83394600D02*
X199414618Y-83185100D01*
X195082717Y-97334101D02*
X193585268Y-97334101D01*
X199805118Y-92611700D02*
X195082717Y-97334101D01*
X199805118Y-87818784D02*
X199805118Y-92611700D01*
X199624118Y-83394600D02*
X200132118Y-83902600D01*
X200132118Y-87491784D02*
X199805118Y-87818784D01*
X200132118Y-83902600D02*
X200132118Y-87491784D01*
X145095517Y-90169941D02*
X145095517Y-91478250D01*
X194911058Y-96684102D02*
X193585268Y-96684102D01*
X199224118Y-92371042D02*
X194911058Y-96684102D01*
X199224118Y-84417100D02*
X199224118Y-92371042D01*
X198862118Y-84055100D02*
X199224118Y-84417100D01*
X145745516Y-90341600D02*
X145745516Y-91478250D01*
X145834416Y-90252700D02*
X145745516Y-90341600D01*
X163664228Y-90252700D02*
X145834416Y-90252700D01*
X170150828Y-83766100D02*
X163664228Y-90252700D01*
X198573118Y-83766100D02*
X170150828Y-83766100D01*
X198862118Y-84055100D02*
X198573118Y-83766100D01*
X170391486Y-84347100D02*
X158027886Y-96710700D01*
X158027886Y-96710700D02*
X152888118Y-96710700D01*
X198026957Y-84604202D02*
X197769855Y-84347100D01*
X197769855Y-84347100D02*
X170391486Y-84347100D01*
X200459118Y-82604100D02*
X198899576Y-82604100D01*
X201148118Y-83293100D02*
X200459118Y-82604100D01*
X200386118Y-88059442D02*
X201148118Y-87297442D01*
X200386118Y-92852358D02*
X200386118Y-88059442D01*
X195254374Y-97984102D02*
X200386118Y-92852358D01*
X193585268Y-97984102D02*
X195254374Y-97984102D01*
X201148118Y-87297442D02*
X201148118Y-83293100D01*
X169669512Y-82604100D02*
X198899576Y-82604100D01*
X163182912Y-89090700D02*
X169669512Y-82604100D01*
X145353100Y-89090700D02*
X163182912Y-89090700D01*
X144445516Y-89998284D02*
X145353100Y-89090700D01*
X144445516Y-91478250D02*
X144445516Y-89998284D01*
X208267719Y-101319499D02*
X211550117Y-101319499D01*
X208260118Y-101327100D02*
X208267719Y-101319499D01*
X208252517Y-101319499D02*
X208260118Y-101327100D01*
X190226118Y-91675100D02*
X193274118Y-91655498D01*
X213848118Y-103359100D02*
X212933718Y-104273500D01*
X213848118Y-99278304D02*
X213848118Y-103359100D01*
X212868516Y-98298702D02*
X213848118Y-99278304D01*
X211562118Y-98298702D02*
X212868516Y-98298702D01*
X212933718Y-104273500D02*
X211034516Y-104273500D01*
D35*
X214660918Y-107778700D02*
X216388118Y-106051500D01*
X209592318Y-107778700D02*
X214660918Y-107778700D01*
X208234718Y-109136300D02*
X209592318Y-107778700D01*
X206977418Y-109136300D02*
X208234718Y-109136300D01*
D36*
X215524518Y-101187900D02*
X216388118Y-102051500D01*
X215524518Y-97618700D02*
X215524518Y-101187900D01*
X213340118Y-95434300D02*
X215524518Y-97618700D01*
X208564918Y-92843500D02*
X211155718Y-95434300D01*
X211155718Y-95434300D02*
X213340118Y-95434300D01*
X208564918Y-91776700D02*
X208564918Y-92843500D01*
X211564918Y-87076700D02*
X211564918Y-88776700D01*
X211564918Y-88776700D02*
X214564918Y-91776700D01*
D34*
X201517618Y-95434300D02*
X204297618Y-98214300D01*
X207719021Y-98310703D02*
X208172920Y-98310703D01*
X204842618Y-95434300D02*
X207719021Y-98310703D01*
X204297618Y-98214300D02*
X205077518Y-98214300D01*
X213822118Y-115957500D02*
X207277118Y-115957500D01*
X207277118Y-115957500D02*
X207023118Y-116211500D01*
X214813318Y-116948700D02*
X213822118Y-115957500D01*
X216337318Y-116948700D02*
X214813318Y-116948700D01*
X216337318Y-113748300D02*
X216312518Y-113773100D01*
X216337318Y-111871100D02*
X216337318Y-113748300D01*
X213606818Y-111436300D02*
X215972018Y-109071100D01*
X215972018Y-109071100D02*
X216337318Y-109071100D01*
X208196618Y-112655500D02*
X206977418Y-111436300D01*
X213606818Y-111436300D02*
X212387618Y-112655500D01*
X212387618Y-112655500D02*
X208196618Y-112655500D01*
D35*
X204856518Y-113976300D02*
X205096518Y-113736300D01*
X200576821Y-114090397D02*
X200690918Y-113976300D01*
D34*
X207023118Y-113782000D02*
X206977418Y-113736300D01*
X207023118Y-116211500D02*
X207023118Y-113782000D01*
D35*
X200690918Y-113976300D02*
X204856518Y-113976300D01*
X205758218Y-110355500D02*
X204687181Y-110355500D01*
X206977418Y-109136300D02*
X205758218Y-110355500D01*
X205096518Y-113736300D02*
X206977418Y-113736300D01*
D34*
X207023118Y-118026300D02*
X207023118Y-116211500D01*
X204687181Y-110355500D02*
X203911181Y-111131500D01*
X208184921Y-98298702D02*
X208172920Y-98310703D01*
X211562118Y-98298702D02*
X208184921Y-98298702D01*
X207142518Y-101319499D02*
X208025720Y-102202701D01*
X207142518Y-101319499D02*
X208172920Y-101319499D01*
X208025720Y-102202701D02*
X208025720Y-104273500D01*
X205882717Y-101319499D02*
X207142518Y-101319499D01*
X211550117Y-101319499D02*
X211562118Y-101307498D01*
X208172920Y-101319499D02*
X208252517Y-101319499D01*
X205077518Y-100514300D02*
X205882717Y-101319499D01*
D35*
X205040718Y-102851100D02*
X205077518Y-102814300D01*
X201402118Y-102851100D02*
X205040718Y-102851100D01*
X199166918Y-105086300D02*
X201402118Y-102851100D01*
X199166918Y-106762700D02*
X199166918Y-105086300D01*
X199319318Y-106915100D02*
X199166918Y-106762700D01*
D34*
X190824650Y-104516432D02*
X190824650Y-103559399D01*
X192576650Y-106268432D02*
X190824650Y-104516432D01*
X192576650Y-108106599D02*
X192576650Y-106268432D01*
X194074650Y-109604599D02*
X192576650Y-108106599D01*
X194074650Y-104065102D02*
X194120252Y-104019500D01*
X194074650Y-106810599D02*
X194074650Y-104065102D01*
X195509318Y-101073100D02*
X194120252Y-102462166D01*
X194721918Y-99284102D02*
X195509318Y-100071502D01*
X195509318Y-100071502D02*
X195509318Y-101073100D01*
X193585268Y-99284102D02*
X194721918Y-99284102D01*
X194120252Y-102462166D02*
X194120252Y-104019500D01*
D35*
X199319318Y-106915100D02*
X201382255Y-106915100D01*
X199198718Y-112712294D02*
X199198718Y-107035700D01*
X200576821Y-114090397D02*
X199198718Y-112712294D01*
X199198718Y-107035700D02*
X199319318Y-106915100D01*
D34*
X197079874Y-93693628D02*
X194739401Y-96034101D01*
X197079874Y-93398056D02*
X197079874Y-93693628D01*
X194739401Y-96034101D02*
X193585268Y-96034101D01*
X200538518Y-122561500D02*
X200576821Y-122248093D01*
X202859326Y-120451598D02*
X203585617Y-119725307D01*
X203585617Y-119725307D02*
X203585617Y-119411900D01*
X202373316Y-120451598D02*
X202859326Y-120451598D01*
X200576821Y-122248093D02*
X202373316Y-120451598D01*
X200576821Y-122561500D02*
X200538518Y-122561500D01*
D35*
X200576821Y-116262300D02*
X200576821Y-114090397D01*
D36*
X196271318Y-124745900D02*
X194239318Y-122713900D01*
D35*
X194239318Y-122713900D02*
X194798118Y-122713900D01*
X178745318Y-122713900D02*
X194239318Y-122713900D01*
D36*
X203978918Y-122626300D02*
X201859318Y-124745900D01*
X207023118Y-122626300D02*
X203978918Y-122626300D01*
X201859318Y-124745900D02*
X196271318Y-124745900D01*
D34*
X206958318Y-122561500D02*
X203585617Y-122561500D01*
X207023118Y-122626300D02*
X206958318Y-122561500D01*
X206108718Y-119411900D02*
X203585617Y-119411900D01*
X207023118Y-120326300D02*
X206108718Y-119411900D01*
X203585617Y-116262300D02*
X203585617Y-119411900D01*
D36*
X200576821Y-119411900D02*
X200576821Y-116262300D01*
D34*
X195153718Y-92515652D02*
X195153718Y-90328300D01*
X193585268Y-94084102D02*
X195153718Y-92515652D01*
X195153718Y-90328300D02*
X195293118Y-90188900D01*
X195129723Y-90188900D02*
X195293118Y-90188900D01*
X193587525Y-88646702D02*
X195129723Y-90188900D01*
X193274118Y-88646702D02*
X193587525Y-88646702D01*
X192448618Y-94734101D02*
X193585268Y-94734101D01*
X192156518Y-92945100D02*
X192156518Y-94442001D01*
X193274118Y-91827500D02*
X192156518Y-92945100D01*
X193274118Y-91655498D02*
X193274118Y-91827500D01*
X192156518Y-94442001D02*
X192448618Y-94734101D01*
X154208918Y-95129500D02*
X151059318Y-95059098D01*
X117023318Y-89389100D02*
X113893320Y-89369498D01*
X144607718Y-69729500D02*
X146581047Y-67756171D01*
X141480318Y-78749700D02*
X144607718Y-75622300D01*
X146581047Y-67756171D02*
X150950183Y-67756171D01*
X141729834Y-87153900D02*
X141480318Y-86904384D01*
X144607718Y-75622300D02*
X144607718Y-69729500D01*
X146120118Y-87153900D02*
X141729834Y-87153900D01*
X146395517Y-86878501D02*
X146120118Y-87153900D01*
X141480318Y-86904384D02*
X141480318Y-78749700D01*
X140899318Y-87145042D02*
X140899318Y-75419866D01*
X143145516Y-89391240D02*
X140899318Y-87145042D01*
X143145516Y-91478250D02*
X143145516Y-89391240D01*
X140899318Y-75419866D02*
X139480051Y-74000599D01*
X142495518Y-89562900D02*
X142495518Y-91478250D01*
X140086518Y-82327900D02*
X140086518Y-87153900D01*
X140086518Y-87153900D02*
X142495518Y-89562900D01*
X136886118Y-79127500D02*
X140086518Y-82327900D01*
X133364449Y-77199799D02*
X135292150Y-79127500D01*
X135292150Y-79127500D02*
X136886118Y-79127500D01*
X119887720Y-89775898D02*
X119868118Y-89795500D01*
X119887720Y-89719900D02*
X119887720Y-89775898D01*
X143795517Y-93655701D02*
X143795517Y-91478250D01*
X141839718Y-94316700D02*
X143134518Y-94316700D01*
X143134518Y-94316700D02*
X143795517Y-93655701D01*
X209758118Y-80092700D02*
X209808918Y-80041900D01*
X151465718Y-86880298D02*
X151770518Y-86575498D01*
X158151083Y-64296599D02*
X158151083Y-61125394D01*
X193673651Y-64347399D02*
X193673651Y-64809224D01*
X147045519Y-85471150D02*
X147045519Y-86162701D01*
X181031318Y-94427053D02*
X181031318Y-94469100D01*
X101640983Y-64864650D02*
X100796433Y-65709200D01*
X181005264Y-94400999D02*
X181031318Y-94427053D01*
X185857318Y-94734101D02*
X187578168Y-94734101D01*
X184377164Y-94734101D02*
X185857318Y-94734101D01*
X158893513Y-85192302D02*
X160702711Y-83383104D01*
X95887984Y-120323399D02*
X95887984Y-115894548D01*
X98215722Y-86036300D02*
X98215722Y-82886700D01*
X158151083Y-64296599D02*
X158151083Y-64495172D01*
X147695517Y-86812699D02*
X147695517Y-85471150D01*
X156616721Y-85192302D02*
X158893513Y-85192302D01*
X104566641Y-91186702D02*
X104609436Y-91229497D01*
X193673651Y-64809224D02*
X192752901Y-65729974D01*
X101640983Y-64194999D02*
X101640983Y-60384999D01*
X104587437Y-90557500D02*
X104609436Y-90579499D01*
X156840082Y-65806173D02*
X156595333Y-65806173D01*
X98215722Y-86349707D02*
X98215722Y-86036300D01*
X151889584Y-120323399D02*
X151889584Y-115802948D01*
X100767318Y-90557500D02*
X101396520Y-91186702D01*
X99776534Y-90557500D02*
X99776534Y-87910519D01*
X181276565Y-94672300D02*
X183775604Y-94672300D01*
X175537326Y-60435799D02*
X175486526Y-60384999D01*
X95887984Y-115894548D02*
X96834134Y-114948398D01*
X151889584Y-115802948D02*
X152693334Y-114999198D01*
X147763116Y-86880298D02*
X151465718Y-86880298D01*
X154830114Y-86575498D02*
X151770518Y-86575498D01*
X99776534Y-87910519D02*
X98215722Y-86349707D01*
X154869318Y-86614702D02*
X154830114Y-86575498D01*
X154908522Y-86575498D02*
X154869318Y-86614702D01*
X183775604Y-94672300D02*
X184046905Y-94400999D01*
X181031318Y-94469100D02*
X181073365Y-94469100D01*
X181073365Y-94469100D02*
X181276565Y-94672300D01*
X188106250Y-115843748D02*
X188900000Y-115049998D01*
X139276851Y-65062161D02*
X138584701Y-65754311D01*
X193673651Y-64347399D02*
X193673651Y-60476599D01*
X101396520Y-91186702D02*
X104566641Y-91186702D01*
X184072959Y-94601898D02*
X184099013Y-94575844D01*
X186507316Y-95384099D02*
X185857318Y-94734101D01*
X158151083Y-64495172D02*
X156840082Y-65806173D01*
X139276851Y-60384999D02*
X139276851Y-65062161D01*
X187578168Y-95384099D02*
X186507316Y-95384099D01*
X193673651Y-60476599D02*
X193582051Y-60384999D01*
X155233525Y-86575498D02*
X156616721Y-85192302D01*
X160702711Y-83383104D02*
X161016118Y-83383104D01*
X180616165Y-94011900D02*
X175576116Y-94011900D01*
X99776534Y-90557500D02*
X100767318Y-90557500D01*
X147045519Y-86162701D02*
X147695517Y-86812699D01*
X114159050Y-120323399D02*
X114159050Y-115843748D01*
X158151083Y-61125394D02*
X157410688Y-60384999D01*
X170007718Y-120323399D02*
X170007718Y-115742148D01*
X181005264Y-94400999D02*
X180616165Y-94011900D01*
X170007718Y-115742148D02*
X170801468Y-114948398D01*
X154920118Y-86575498D02*
X154908522Y-86575498D01*
X188106250Y-120323399D02*
X188106250Y-115843748D01*
X101640983Y-64194999D02*
X101640983Y-64864650D01*
X175576116Y-94011900D02*
X175138518Y-93574302D01*
X99776534Y-90557500D02*
X104587437Y-90557500D01*
X133648650Y-120323399D02*
X133648650Y-115981348D01*
X175537326Y-64144199D02*
X175537326Y-60435799D01*
X184072959Y-94429896D02*
X184377164Y-94734101D01*
X133648650Y-115981348D02*
X134584800Y-115045198D01*
X175537326Y-64144199D02*
X175537326Y-64903917D01*
X175537326Y-64903917D02*
X174678370Y-65762873D01*
X154920118Y-86575498D02*
X155233525Y-86575498D01*
X114159050Y-115843748D02*
X115054400Y-114948398D01*
X187107751Y-67679972D02*
X188244401Y-67679972D01*
X103507984Y-120323399D02*
X105898485Y-122713900D01*
X104582135Y-91906800D02*
X104609436Y-91879499D01*
X159509584Y-120323399D02*
X159509584Y-121867766D01*
X156941722Y-87743898D02*
X158018918Y-86666702D01*
D35*
X183574451Y-57997399D02*
X166708851Y-57997399D01*
D34*
X97803631Y-91906800D02*
X104582135Y-91906800D01*
X187578168Y-96034101D02*
X182361917Y-96034101D01*
X194545150Y-113100000D02*
X193408500Y-113100000D01*
X108133318Y-58860999D02*
X107269718Y-57997399D01*
D35*
X160355718Y-122713900D02*
X178745318Y-122713900D01*
D34*
X146395517Y-85471150D02*
X146395517Y-86878501D01*
X112241251Y-60384999D02*
X112943251Y-61086999D01*
X149790688Y-60384999D02*
X149790688Y-66596676D01*
D35*
X94315718Y-122713900D02*
X105898485Y-122713900D01*
D34*
X158317086Y-113049200D02*
X157201834Y-113049200D01*
D35*
X94020983Y-60384999D02*
X94020983Y-65655435D01*
X166708851Y-59227324D02*
X166708851Y-57997399D01*
X105898485Y-122713900D02*
X122916118Y-122713900D01*
D34*
X112943251Y-61086999D02*
X112943251Y-67270300D01*
X186053651Y-60476599D02*
X186053651Y-66625872D01*
D35*
X148420851Y-57997399D02*
X130031251Y-57997399D01*
D34*
X131656851Y-66421609D02*
X132939551Y-67704309D01*
D35*
X107269718Y-57997399D02*
X95182451Y-57997399D01*
X195726250Y-121785768D02*
X195726250Y-120323399D01*
X90505718Y-112147500D02*
X92893318Y-114535100D01*
D34*
X131656851Y-60384999D02*
X131656851Y-66421609D01*
X150950183Y-67756171D02*
X152086833Y-67756171D01*
X103507984Y-120323399D02*
X103507984Y-114048498D01*
X103507984Y-114048498D02*
X102457886Y-112998400D01*
D35*
X94020983Y-65655435D02*
X90505718Y-69170700D01*
X122916118Y-122713900D02*
X141966118Y-122713900D01*
D34*
X141268650Y-122016432D02*
X141966118Y-122713900D01*
D35*
X141966118Y-122713900D02*
X160355718Y-122713900D01*
D34*
X121779050Y-120323399D02*
X121779050Y-114099298D01*
X102457886Y-112998400D02*
X101342634Y-112998400D01*
X177114520Y-96583098D02*
X178084918Y-95612700D01*
X132939551Y-67704309D02*
X134076201Y-67704309D01*
X147260914Y-87743898D02*
X156941722Y-87743898D01*
D35*
X130031251Y-58759399D02*
X130031251Y-57997399D01*
D34*
X104609436Y-91879499D02*
X105673884Y-91879499D01*
D35*
X148420851Y-59015162D02*
X148420851Y-57997399D01*
D34*
X94020983Y-66507500D02*
X95172681Y-67659198D01*
X178516118Y-96043900D02*
X178084918Y-95612700D01*
X195726250Y-114281100D02*
X194545150Y-113100000D01*
X159509584Y-120323399D02*
X159509584Y-114241698D01*
D35*
X149790688Y-60384999D02*
X148420851Y-59015162D01*
D34*
X158018918Y-86666702D02*
X160741316Y-86666702D01*
X105755586Y-91797797D02*
X105755586Y-88287766D01*
D35*
X90505718Y-69170700D02*
X90505718Y-112147500D01*
X166708851Y-57997399D02*
X148420851Y-57997399D01*
D34*
X175138518Y-96583098D02*
X177114520Y-96583098D01*
X105898118Y-79991100D02*
X108133318Y-77755900D01*
X182361917Y-96034101D02*
X182352118Y-96043900D01*
X149790688Y-66596676D02*
X150950183Y-67756171D01*
X177627718Y-121596300D02*
X178745318Y-122713900D01*
D35*
X92893318Y-114535100D02*
X92893318Y-121291500D01*
D34*
X185962051Y-60384999D02*
X186053651Y-60476599D01*
X105898118Y-85319902D02*
X105898118Y-79991100D01*
X108133318Y-77755900D02*
X108133318Y-58860999D01*
X167866526Y-60384999D02*
X167866526Y-66524779D01*
X159509584Y-114241698D02*
X158317086Y-113049200D01*
D35*
X194798118Y-122713900D02*
X195726250Y-121785768D01*
X110981251Y-57997399D02*
X107269718Y-57997399D01*
D34*
X195726250Y-120323399D02*
X195726250Y-114281100D01*
X96767738Y-90870907D02*
X97803631Y-91906800D01*
X176446618Y-112998400D02*
X175309968Y-112998400D01*
D35*
X95182451Y-57997399D02*
X94020983Y-59158867D01*
D34*
X94020983Y-60384999D02*
X94020983Y-66507500D01*
X146395517Y-86878501D02*
X147260914Y-87743898D01*
X120678152Y-112998400D02*
X119562900Y-112998400D01*
X104342920Y-86875100D02*
X105898118Y-85319902D01*
X95172681Y-67659198D02*
X96287933Y-67659198D01*
X177627718Y-114179500D02*
X176446618Y-112998400D01*
X112943251Y-67270300D02*
X113373749Y-67700798D01*
X113373749Y-67700798D02*
X114489001Y-67700798D01*
D35*
X131656851Y-60384999D02*
X130031251Y-58759399D01*
X185962051Y-60384999D02*
X183574451Y-57997399D01*
D34*
X105755586Y-88287766D02*
X104342920Y-86875100D01*
X141268650Y-114155298D02*
X140208552Y-113095200D01*
D35*
X167866526Y-60384999D02*
X166708851Y-59227324D01*
D34*
X177627718Y-120323399D02*
X177627718Y-114179500D01*
X121779050Y-120323399D02*
X121779050Y-121576832D01*
X169054618Y-67712871D02*
X170169870Y-67712871D01*
D35*
X92893318Y-121291500D02*
X94315718Y-122713900D01*
D34*
X110981251Y-59124999D02*
X110981251Y-57997399D01*
X94020983Y-59158867D02*
X94020983Y-60384999D01*
X159509584Y-121867766D02*
X160355718Y-122713900D01*
X141268650Y-120323399D02*
X141268650Y-122016432D01*
X105673884Y-91879499D02*
X105755586Y-91797797D01*
X121779050Y-121576832D02*
X122916118Y-122713900D01*
X160741316Y-86666702D02*
X161016118Y-86391900D01*
X140208552Y-113095200D02*
X139093300Y-113095200D01*
X186053651Y-66625872D02*
X187107751Y-67679972D01*
X96767738Y-90557500D02*
X96767738Y-90870907D01*
X121779050Y-114099298D02*
X120678152Y-112998400D01*
X141268650Y-120323399D02*
X141268650Y-114155298D01*
X167866526Y-66524779D02*
X169054618Y-67712871D01*
D35*
X130031251Y-57997399D02*
X110981251Y-57997399D01*
D34*
X177627718Y-120323399D02*
X177627718Y-121596300D01*
X112241251Y-60384999D02*
X110981251Y-59124999D01*
X117042920Y-89369498D02*
X117023318Y-89389100D01*
X151059318Y-95059098D02*
X148161832Y-95059098D01*
X190226118Y-91655498D02*
X190226118Y-91675100D01*
X154158118Y-95059098D02*
X154208918Y-95129500D01*
X148161832Y-95059098D02*
X147695517Y-94592783D01*
X110616536Y-90579499D02*
X112683319Y-90579499D01*
X147695517Y-94592783D02*
X147695517Y-91478250D01*
X112683319Y-90579499D02*
X113893320Y-89369498D01*
X145115718Y-81846420D02*
X145358238Y-81603900D01*
X187603651Y-77073371D02*
X187558049Y-77118973D01*
X159555613Y-81603900D02*
X160514413Y-80645100D01*
X160514413Y-80645100D02*
X176220576Y-80645100D01*
X145095520Y-85471150D02*
X145115718Y-85450952D01*
X187558049Y-78425371D02*
X187558049Y-77118973D01*
X145358238Y-81603900D02*
X159555613Y-81603900D01*
X187603651Y-73943973D02*
X187603651Y-77073371D01*
X186500320Y-79483100D02*
X187558049Y-78425371D01*
X145115718Y-85450952D02*
X145115718Y-81846420D01*
X176220576Y-80645100D02*
X177382576Y-79483100D01*
X177382576Y-79483100D02*
X186500320Y-79483100D01*
X145776118Y-82794500D02*
X145776118Y-82184900D01*
X176461234Y-81226100D02*
X177623234Y-80064100D01*
X145745519Y-82825099D02*
X145776118Y-82794500D01*
X194009391Y-73969973D02*
X193673651Y-73969973D01*
X159796271Y-82184900D02*
X160755071Y-81226100D01*
X193673651Y-73969973D02*
X196513049Y-73969973D01*
X195610918Y-78721100D02*
X195610918Y-75571500D01*
X194267918Y-80064100D02*
X195610918Y-78721100D01*
X177623234Y-80064100D02*
X194267918Y-80064100D01*
X145745519Y-85471150D02*
X145745519Y-82825099D01*
X195610918Y-75571500D02*
X194009391Y-73969973D01*
X145776118Y-82184900D02*
X159796271Y-82184900D01*
X160755071Y-81226100D02*
X176461234Y-81226100D01*
X196513049Y-73969973D02*
X196731651Y-73751371D01*
X159074297Y-80441900D02*
X160033097Y-79483100D01*
X169610518Y-74091791D02*
X169518126Y-73999399D01*
X169610518Y-78455397D02*
X169610518Y-77148999D01*
X168582815Y-79483100D02*
X169610518Y-78455397D01*
X160033097Y-79483100D02*
X168582815Y-79483100D01*
X143845718Y-85420952D02*
X143845718Y-81311900D01*
X143795520Y-85471150D02*
X143845718Y-85420952D01*
X143845718Y-81311900D02*
X144715718Y-80441900D01*
X169610518Y-77148999D02*
X169610518Y-74091791D01*
X144715718Y-80441900D02*
X159074297Y-80441900D01*
X144445519Y-81694961D02*
X145117580Y-81022900D01*
X145117580Y-81022900D02*
X159314955Y-81022900D01*
X175735328Y-73827397D02*
X178534526Y-73827397D01*
X177221318Y-75622300D02*
X177134227Y-75622300D01*
X159314955Y-81022900D02*
X160273755Y-80064100D01*
X175979918Y-80064100D02*
X177221318Y-78822700D01*
X177134227Y-75622300D02*
X175537326Y-74025399D01*
X175537326Y-74025399D02*
X175735328Y-73827397D01*
X144445519Y-85471150D02*
X144445519Y-81694961D01*
X177221318Y-78822700D02*
X177221318Y-75622300D01*
X160273755Y-80064100D02*
X175979918Y-80064100D01*
X151827083Y-73639172D02*
X151827083Y-77001797D01*
X142495520Y-85471150D02*
X142495520Y-80884098D01*
X144099718Y-79279900D02*
X150855378Y-79279900D01*
X151527481Y-78607797D02*
X151527481Y-77301399D01*
X150855378Y-79279900D02*
X151527481Y-78607797D01*
X142495520Y-80884098D02*
X144099718Y-79279900D01*
X151827083Y-77001797D02*
X151527481Y-77301399D01*
X158170685Y-73873570D02*
X161024687Y-73873570D01*
X143145519Y-85471150D02*
X143145519Y-81055757D01*
X144340376Y-79860900D02*
X158833639Y-79860900D01*
X157897083Y-74173172D02*
X157613888Y-74173172D01*
X159390518Y-79304021D02*
X159390518Y-75666607D01*
X159390518Y-75666607D02*
X157897083Y-74173172D01*
X157613888Y-74173172D02*
X157871083Y-74173172D01*
X158833639Y-79860900D02*
X159390518Y-79304021D01*
X143145519Y-81055757D02*
X144340376Y-79860900D01*
X157871083Y-74173172D02*
X158170685Y-73873570D01*
X142405649Y-74000599D02*
X142629651Y-73776597D01*
X139480051Y-74000599D02*
X142405649Y-74000599D01*
X133359251Y-73846999D02*
X133308451Y-73897799D01*
X133308451Y-77154197D02*
X133354053Y-77199799D01*
X133354053Y-77199799D02*
X133364449Y-77199799D01*
X133308451Y-73897799D02*
X133308451Y-77154197D01*
X148925718Y-83566702D02*
X148345518Y-84146902D01*
X151770518Y-83566702D02*
X154920118Y-83566702D01*
X148345518Y-84146902D02*
X148345518Y-85471150D01*
X151770518Y-83566702D02*
X148925718Y-83566702D01*
X158018918Y-83566702D02*
X154920118Y-83566702D01*
X148917568Y-92050302D02*
X151059318Y-92050302D01*
X148345516Y-91478250D02*
X148917568Y-92050302D01*
X151059318Y-92050302D02*
X154158118Y-92050302D01*
X156952118Y-92055500D02*
X154163316Y-92055500D01*
X154163316Y-92055500D02*
X154158118Y-92050302D01*
X183948662Y-97334098D02*
X182686060Y-98596700D01*
X139657850Y-106805799D02*
X139657850Y-103631399D01*
X149272460Y-101479500D02*
X140188118Y-101479500D01*
X167304544Y-99939700D02*
X166215544Y-101028700D01*
X139657850Y-103631399D02*
X139683850Y-103605399D01*
X175028787Y-99939700D02*
X167304544Y-99939700D01*
X166215544Y-101028700D02*
X149723260Y-101028700D01*
X176371787Y-98596700D02*
X175028787Y-99939700D01*
X182686060Y-98596700D02*
X176371787Y-98596700D01*
X140188118Y-101479500D02*
X139683850Y-101983768D01*
X149723260Y-101028700D02*
X149272460Y-101479500D01*
X139683850Y-101983768D02*
X139683850Y-103605399D01*
X187578168Y-97334098D02*
X183948662Y-97334098D01*
X176853103Y-99758700D02*
X175510103Y-101101700D01*
X157965887Y-102190700D02*
X157852786Y-102303801D01*
X157857984Y-103615397D02*
X157852786Y-103610199D01*
X157857984Y-106708999D02*
X157857984Y-103615397D01*
X184384720Y-98634098D02*
X183260118Y-99758700D01*
X187578168Y-98634098D02*
X184384720Y-98634098D01*
X183260118Y-99758700D02*
X176853103Y-99758700D01*
X175510103Y-101101700D02*
X167785860Y-101101700D01*
X157852786Y-102303801D02*
X157852786Y-103610199D01*
X167785860Y-101101700D02*
X166696860Y-102190700D01*
X166696860Y-102190700D02*
X157965887Y-102190700D01*
X183977718Y-100920700D02*
X177334419Y-100920700D01*
X187578168Y-99934098D02*
X184964320Y-99934098D01*
X184964320Y-99934098D02*
X183977718Y-100920700D01*
X175976118Y-106759799D02*
X175976118Y-103585399D01*
X176002118Y-102253001D02*
X176002118Y-103559399D01*
X175976118Y-103585399D02*
X176002118Y-103559399D01*
X177334419Y-100920700D02*
X176002118Y-102253001D01*
X185007450Y-101668968D02*
X185007450Y-107002203D01*
X188004650Y-106784599D02*
X185225054Y-106784599D01*
X193585268Y-99934100D02*
X191263518Y-99934100D01*
X185225054Y-106784599D02*
X185007450Y-107002203D01*
X191263518Y-99934100D02*
X189921318Y-101276300D01*
X189921318Y-101276300D02*
X185400118Y-101276300D01*
X185400118Y-101276300D02*
X185007450Y-101668968D01*
X182445402Y-98015700D02*
X183777003Y-96684099D01*
X165974886Y-100447700D02*
X167063886Y-99358700D01*
X133537050Y-106804599D02*
X131298118Y-104565667D01*
X131298118Y-104565667D02*
X131298118Y-103003500D01*
X133537050Y-106804599D02*
X130783454Y-106804599D01*
X133482518Y-100819100D02*
X149111202Y-100819100D01*
X131298118Y-103003500D02*
X133482518Y-100819100D01*
X149482602Y-100447700D02*
X165974886Y-100447700D01*
X167063886Y-99358700D02*
X174788129Y-99358700D01*
X183777003Y-96684099D02*
X187578168Y-96684099D01*
X130783454Y-106804599D02*
X130590650Y-106997403D01*
X174788129Y-99358700D02*
X176131129Y-98015700D01*
X149111202Y-100819100D02*
X149482602Y-100447700D01*
X176131129Y-98015700D02*
X182445402Y-98015700D01*
X167545202Y-100520700D02*
X166456202Y-101609700D01*
X151737184Y-106733799D02*
X148867584Y-106733799D01*
X175269445Y-100520700D02*
X167545202Y-100520700D01*
X148867584Y-106733799D02*
X148689184Y-106912199D01*
X187578168Y-97984099D02*
X184120319Y-97984099D01*
X182926718Y-99177700D02*
X176612445Y-99177700D01*
X149963918Y-101609700D02*
X148689184Y-102884434D01*
X176612445Y-99177700D02*
X175269445Y-100520700D01*
X184120319Y-97984099D02*
X182926718Y-99177700D01*
X166456202Y-101609700D02*
X149963918Y-101609700D01*
X148689184Y-102884434D02*
X148689184Y-106912199D01*
X166858118Y-102851100D02*
X166858118Y-106982601D01*
X187578168Y-99284099D02*
X184649119Y-99284099D01*
X175750761Y-101682700D02*
X168026518Y-101682700D01*
X169906118Y-106733799D02*
X167106920Y-106733799D01*
X184649119Y-99284099D02*
X183593518Y-100339700D01*
X168026518Y-101682700D02*
X166858118Y-102851100D01*
X183593518Y-100339700D02*
X177093761Y-100339700D01*
X177093761Y-100339700D02*
X175750761Y-101682700D01*
X167106920Y-106733799D02*
X166858118Y-106982601D01*
X178084918Y-92512700D02*
X179205415Y-91392203D01*
X184072959Y-91366149D02*
X181031318Y-91366149D01*
X181057372Y-91567048D02*
X181031318Y-91593102D01*
X179205415Y-91392203D02*
X181005264Y-91392203D01*
X187578168Y-94084100D02*
X184915168Y-91421100D01*
X184915168Y-91421100D02*
X184072959Y-91421100D01*
X193274118Y-88646702D02*
X190226118Y-88646702D01*
X113419550Y-96298056D02*
X113419550Y-96736810D01*
X120076650Y-103686999D02*
X120255050Y-103508599D01*
X110616536Y-95129500D02*
X112250994Y-95129500D01*
X112250994Y-95129500D02*
X113419550Y-96298056D01*
X113419550Y-96736810D02*
X113419550Y-100644148D01*
X113419550Y-100644148D02*
X114204102Y-101428700D01*
X120076650Y-106759799D02*
X120076650Y-103686999D01*
X118175151Y-101428700D02*
X120255050Y-103508599D01*
X114204102Y-101428700D02*
X118175151Y-101428700D01*
X107060118Y-92136581D02*
X107060118Y-80472416D01*
X106017203Y-93179496D02*
X107060118Y-92136581D01*
X107519234Y-80013300D02*
X112118013Y-80013300D01*
X107060118Y-80472416D02*
X107519234Y-80013300D01*
X112118013Y-80013300D02*
X113257813Y-78873500D01*
X123112451Y-76311803D02*
X123112451Y-73730197D01*
X104609436Y-93179496D02*
X106017203Y-93179496D01*
X120308853Y-73730197D02*
X123112451Y-73730197D01*
X120064451Y-73974599D02*
X120308853Y-73730197D01*
X120550754Y-78873500D02*
X123112451Y-76311803D01*
X113257813Y-78873500D02*
X120550754Y-78873500D01*
X95835274Y-94479496D02*
X104609436Y-94479496D01*
X95626981Y-77047399D02*
X95626981Y-80550579D01*
X94211520Y-92855742D02*
X95835274Y-94479496D01*
X95626981Y-80550579D02*
X94211520Y-81966040D01*
X94211520Y-81966040D02*
X94211520Y-92855742D01*
X95621783Y-73897799D02*
X95621783Y-77042201D01*
X95621783Y-77042201D02*
X95626981Y-77047399D01*
X101834118Y-105726731D02*
X102003586Y-105896199D01*
X102962122Y-95779496D02*
X101834118Y-96907500D01*
X101834118Y-96907500D02*
X101834118Y-105726731D01*
X101856384Y-106810599D02*
X101856384Y-103706601D01*
X104609436Y-95779496D02*
X102962122Y-95779496D01*
X101856384Y-103706601D02*
X101952786Y-103610199D01*
X114057450Y-106682999D02*
X111207452Y-106682999D01*
X113859448Y-106881001D02*
X114078133Y-106662316D01*
X114078133Y-106662316D02*
X112838550Y-105422732D01*
X111207452Y-106682999D02*
X111009450Y-106881001D01*
X112838550Y-105422732D02*
X112838550Y-96538714D01*
X112838550Y-96538714D02*
X112079334Y-95779498D01*
X112079334Y-95779498D02*
X110616536Y-95779498D01*
X111877355Y-79432300D02*
X113796449Y-77513206D01*
X113892851Y-77103397D02*
X113796449Y-77199799D01*
X106479118Y-80231758D02*
X107278576Y-79432300D01*
X104609436Y-92529497D02*
X105845544Y-92529497D01*
X107278576Y-79432300D02*
X111877355Y-79432300D01*
X106479118Y-91895923D02*
X106479118Y-80231758D01*
X105845544Y-92529497D02*
X106479118Y-91895923D01*
X113796449Y-77513206D02*
X113796449Y-77199799D01*
X113892851Y-73999399D02*
X113892851Y-77103397D01*
X101920983Y-73694599D02*
X101691783Y-73923799D01*
X103612118Y-76079500D02*
X103612118Y-79279900D01*
X101691783Y-73923799D02*
X101691783Y-74159165D01*
X104739783Y-73694599D02*
X101920983Y-73694599D01*
X103612118Y-79279900D02*
X102748518Y-80143500D01*
X101691783Y-74159165D02*
X103612118Y-76079500D01*
X94792520Y-92615084D02*
X96006933Y-93829497D01*
X102748518Y-80143500D02*
X96855718Y-80143500D01*
X94792520Y-82206698D02*
X94792520Y-92615084D01*
X94874518Y-82124700D02*
X94792520Y-82206698D01*
X96006933Y-93829497D02*
X104609436Y-93829497D01*
X96855718Y-80143500D02*
X94874518Y-82124700D01*
X104609436Y-95129497D02*
X95839721Y-95129497D01*
X95486782Y-107033401D02*
X95786384Y-106733799D01*
X94264918Y-96704300D02*
X94264918Y-105212333D01*
X94264918Y-105212333D02*
X95786384Y-106733799D01*
X92789184Y-107033401D02*
X95486782Y-107033401D01*
X95839721Y-95129497D02*
X94264918Y-96704300D01*
X101224518Y-82886700D02*
X101224518Y-86036300D01*
X101224518Y-82886700D02*
X103454520Y-82886700D01*
X104609436Y-89929498D02*
X103206918Y-89929498D01*
X103206918Y-89929498D02*
X101224518Y-87947098D01*
X103454520Y-82886700D02*
X104342920Y-83775100D01*
X101224518Y-87947098D02*
X101224518Y-86036300D01*
X117302118Y-86619900D02*
X117042920Y-86360702D01*
X117042920Y-86360702D02*
X113893320Y-86360702D01*
X110616536Y-88331088D02*
X112586922Y-86360702D01*
X112586922Y-86360702D02*
X113893320Y-86360702D01*
X119887720Y-86619900D02*
X117302118Y-86619900D01*
X110616536Y-89929500D02*
X110616536Y-88331088D01*
X191042051Y-60384999D02*
X191768651Y-61111599D01*
X191606751Y-66370472D02*
X191616251Y-66379972D01*
X191606751Y-65110874D02*
X191606751Y-66370472D01*
X191616251Y-66379972D02*
X192752901Y-66379972D01*
X191768651Y-64948974D02*
X191606751Y-65110874D01*
X191768651Y-61111599D02*
X191768651Y-64948974D01*
X189584151Y-65079473D02*
X188933650Y-65729974D01*
X188933650Y-65729974D02*
X188244401Y-65729974D01*
X189584151Y-61467099D02*
X189584151Y-65079473D01*
X188502051Y-60384999D02*
X189584151Y-61467099D01*
X172946526Y-65769799D02*
X173589598Y-66412871D01*
X173589598Y-66412871D02*
X174678370Y-66412871D01*
X172946526Y-60384999D02*
X172946526Y-65769799D01*
X173532220Y-66403371D02*
X173541720Y-66412871D01*
X173541720Y-66412871D02*
X174678370Y-66412871D01*
X171778126Y-64154617D02*
X170169870Y-65762873D01*
X171778126Y-61756599D02*
X171778126Y-64154617D01*
X170406526Y-60384999D02*
X171778126Y-61756599D01*
X154870688Y-60384999D02*
X155449183Y-60963494D01*
X155449183Y-60963494D02*
X155449183Y-66365272D01*
X155449183Y-66365272D02*
X155540082Y-66456171D01*
X155540082Y-66456171D02*
X156595333Y-66456171D01*
X152330688Y-60384999D02*
X154061583Y-62115894D01*
X154061583Y-62115894D02*
X154061583Y-63831423D01*
X154061583Y-63831423D02*
X152086833Y-65806173D01*
X137438551Y-66313410D02*
X137529450Y-66404309D01*
X136736851Y-60384999D02*
X137438551Y-61086699D01*
X137438551Y-61086699D02*
X137438551Y-66313410D01*
X137529450Y-66404309D02*
X138584701Y-66404309D01*
X136050951Y-63706810D02*
X134076201Y-65681560D01*
X134076201Y-65681560D02*
X134076201Y-65754311D01*
X134196851Y-60384999D02*
X136050951Y-62239099D01*
X136050951Y-62239099D02*
X136050951Y-63706810D01*
X190646250Y-115009600D02*
X190036650Y-114400000D01*
X190036650Y-114400000D02*
X188900000Y-114400000D01*
X190646250Y-120323399D02*
X190646250Y-115009600D01*
X192195750Y-119332899D02*
X192195750Y-116262748D01*
X193186250Y-120323399D02*
X192195750Y-119332899D01*
X192195750Y-116262748D02*
X193408500Y-115049998D01*
X135721450Y-114395200D02*
X134584800Y-114395200D01*
X136188650Y-114862400D02*
X135721450Y-114395200D01*
X136188650Y-120323399D02*
X136188650Y-114862400D01*
X137550250Y-118540599D02*
X137550250Y-116588248D01*
X137550250Y-116588248D02*
X139093300Y-115045198D01*
X138728650Y-119718999D02*
X137550250Y-118540599D01*
X138728650Y-120323399D02*
X138728650Y-119718999D01*
X153829984Y-114349200D02*
X152693334Y-114349200D01*
X154429584Y-120323399D02*
X154429584Y-114948800D01*
X154429584Y-114948800D02*
X153829984Y-114349200D01*
X156969584Y-120323399D02*
X155979084Y-119332899D01*
X155979084Y-119332899D02*
X155979084Y-116221948D01*
X155979084Y-116221948D02*
X157201834Y-114999198D01*
X172547718Y-114908000D02*
X171938118Y-114298400D01*
X171938118Y-114298400D02*
X170801468Y-114298400D01*
X172547718Y-120323399D02*
X172547718Y-114908000D01*
X174097218Y-119332899D02*
X174097218Y-115979899D01*
X175128719Y-114948398D02*
X175309968Y-114948398D01*
X174097218Y-115979899D02*
X175128719Y-114948398D01*
X175087718Y-120323399D02*
X174097218Y-119332899D01*
X116699050Y-120323399D02*
X116699050Y-114806400D01*
X116699050Y-114806400D02*
X116191050Y-114298400D01*
X116191050Y-114298400D02*
X115054400Y-114298400D01*
X118248550Y-116262748D02*
X119562900Y-114948398D01*
X118248550Y-119332899D02*
X118248550Y-116262748D01*
X119239050Y-120323399D02*
X118248550Y-119332899D01*
X117851351Y-60915099D02*
X117851351Y-66391298D01*
X117321251Y-60384999D02*
X117851351Y-60915099D01*
X117851351Y-66391298D02*
X117860851Y-66400798D01*
X117860851Y-66400798D02*
X118997501Y-66400798D01*
X116473751Y-62077499D02*
X116473751Y-63766050D01*
X116473751Y-63766050D02*
X114489001Y-65750800D01*
X114781251Y-60384999D02*
X116473751Y-62077499D01*
X99100983Y-60384999D02*
X99100983Y-65779000D01*
X99100983Y-65779000D02*
X99681181Y-66359198D01*
X99681181Y-66359198D02*
X100796433Y-66359198D01*
X97551483Y-61375499D02*
X97551483Y-64445650D01*
X97551483Y-64445650D02*
X96287933Y-65709200D01*
X96560983Y-60384999D02*
X97551483Y-61375499D01*
X97949386Y-114298400D02*
X96834134Y-114298400D01*
X98427984Y-114776998D02*
X97949386Y-114298400D01*
X98427984Y-120323399D02*
X98427984Y-114776998D01*
X99977484Y-116313548D02*
X101342634Y-114948398D01*
X100967984Y-120323399D02*
X99977484Y-119332899D01*
X99977484Y-119332899D02*
X99977484Y-116313548D01*
X152888118Y-96710700D02*
X153338918Y-96710700D01*
X147045516Y-94764440D02*
X148991776Y-96710700D01*
X153338918Y-96710700D02*
X153345318Y-96704300D01*
X148991776Y-96710700D02*
X152888118Y-96710700D01*
X147045516Y-91478250D02*
X147045516Y-94764440D01*
X119241721Y-94479499D02*
X119607720Y-94113500D01*
X110616536Y-94479499D02*
X119241721Y-94479499D01*
X145745516Y-95871302D02*
X145745516Y-91478250D01*
X109479886Y-92529500D02*
X109470386Y-92520000D01*
X137016318Y-97291700D02*
X144325118Y-97291700D01*
X124186118Y-84461500D02*
X137016318Y-97291700D01*
X109470386Y-86782032D02*
X111790918Y-84461500D01*
X144325118Y-97291700D02*
X145745516Y-95871302D01*
X110616536Y-92529500D02*
X109479886Y-92529500D01*
X111790918Y-84461500D02*
X124186118Y-84461500D01*
X109470386Y-92520000D02*
X109470386Y-86782032D01*
X124468718Y-83880500D02*
X124795718Y-84207500D01*
X124795718Y-84207500D02*
X124795718Y-84249442D01*
X137256976Y-96710700D02*
X144084460Y-96710700D01*
X111550260Y-83880500D02*
X124468718Y-83880500D01*
X108889386Y-86541374D02*
X111550260Y-83880500D01*
X110616536Y-93179499D02*
X109308227Y-93179499D01*
X109308227Y-93179499D02*
X108889386Y-92760658D01*
X124795718Y-84249442D02*
X137256976Y-96710700D01*
X145095517Y-95699643D02*
X145095517Y-91478250D01*
X108889386Y-92760658D02*
X108889386Y-86541374D01*
X144084460Y-96710700D02*
X145095517Y-95699643D01*
X143843802Y-96129700D02*
X144445516Y-95527986D01*
X123633718Y-83299500D02*
X124709376Y-83299500D01*
X137497634Y-96129700D02*
X143843802Y-96129700D01*
X111316002Y-83293100D02*
X123627318Y-83293100D01*
X123627318Y-83293100D02*
X123633718Y-83299500D01*
X108308386Y-93001316D02*
X108308386Y-86300716D01*
X110616536Y-93829500D02*
X109136570Y-93829500D01*
X125376718Y-83966842D02*
X125376718Y-84008784D01*
X108308386Y-86300716D02*
X111316002Y-83293100D01*
X144445516Y-95527986D02*
X144445516Y-91478250D01*
X124709376Y-83299500D02*
X125376718Y-83966842D01*
X125376718Y-84008784D02*
X137497634Y-96129700D01*
X109136570Y-93829500D02*
X108308386Y-93001316D01*
X189482651Y-70006973D02*
X189482651Y-71601973D01*
X191606751Y-67882873D02*
X189482651Y-70006973D01*
X191133651Y-73252973D02*
X191133651Y-73969973D01*
X191606751Y-67060872D02*
X191606751Y-67882873D01*
X191133651Y-74750973D02*
X193531677Y-77148999D01*
X191133651Y-73969973D02*
X191133651Y-74750973D01*
X193531677Y-77148999D02*
X193963651Y-77148999D01*
X192752901Y-67029974D02*
X191637649Y-67029974D01*
X189482651Y-71601973D02*
X191133651Y-73252973D01*
X191637649Y-67029974D02*
X191606751Y-67060872D01*
X190775593Y-66379972D02*
X188244401Y-66379972D01*
X187603651Y-70996973D02*
X190775593Y-67825031D01*
X190775593Y-67825031D02*
X190775593Y-66379972D01*
X187603651Y-71149973D02*
X187603651Y-70996973D01*
X189365651Y-75650999D02*
X190863651Y-77148999D01*
X189365651Y-72911973D02*
X189365651Y-75650999D01*
X187603651Y-71149973D02*
X189365651Y-72911973D01*
X191133651Y-70869973D02*
X191832151Y-70869973D01*
X191832151Y-70869973D02*
X192752901Y-69949223D01*
X192752901Y-67679972D02*
X192752901Y-69949223D01*
X192752901Y-69949223D02*
X193673651Y-70869973D01*
X188190650Y-69498973D02*
X189863651Y-67825972D01*
X189863651Y-67212973D02*
X189680652Y-67029974D01*
X184503651Y-71149973D02*
X186154651Y-69498973D01*
X189863651Y-67825972D02*
X189863651Y-67212973D01*
X184503651Y-71149973D02*
X184503651Y-73943973D01*
X186154651Y-69498973D02*
X188190650Y-69498973D01*
X189680652Y-67029974D02*
X188244401Y-67029974D01*
X175537326Y-70925399D02*
X175537326Y-70670180D01*
X173614995Y-70874599D02*
X172946526Y-70874599D01*
X175537326Y-70670180D02*
X174678370Y-69811224D01*
X174678370Y-67712871D02*
X174678370Y-69811224D01*
X174678370Y-69811224D02*
X173614995Y-70874599D01*
X173563118Y-67062873D02*
X174678370Y-67062873D01*
X171371726Y-71560999D02*
X171371726Y-70155526D01*
X171371726Y-70155526D02*
X173532220Y-67995032D01*
X173532220Y-67093771D02*
X173563118Y-67062873D01*
X171676526Y-71865799D02*
X171371726Y-71560999D01*
X172946526Y-73974599D02*
X172946526Y-73590676D01*
X172946526Y-73590676D02*
X171676526Y-72320676D01*
X173532220Y-67995032D02*
X173532220Y-67093771D01*
X175817326Y-77197476D02*
X175817326Y-77199799D01*
X172946526Y-73974599D02*
X172946526Y-74326676D01*
X171676526Y-72320676D02*
X171676526Y-71865799D01*
X172946526Y-74326676D02*
X175817326Y-77197476D01*
X172626721Y-66412871D02*
X172697722Y-66483872D01*
X172697722Y-66483872D02*
X172697722Y-68007872D01*
X170169870Y-66412871D02*
X172626721Y-66412871D01*
X170914526Y-72550999D02*
X170914526Y-75396999D01*
X170914526Y-75396999D02*
X172717326Y-77199799D01*
X169518126Y-71154599D02*
X170914526Y-72550999D01*
X169550995Y-71154599D02*
X169518126Y-71154599D01*
X172697722Y-68007872D02*
X169550995Y-71154599D01*
X171935722Y-67753872D02*
X170919722Y-68769872D01*
X166418126Y-71154599D02*
X166418126Y-73999399D01*
X170919722Y-68769872D02*
X168802853Y-68769872D01*
X168802853Y-68769872D02*
X166418126Y-71154599D01*
X171935722Y-67245872D02*
X171935722Y-67753872D01*
X170169870Y-67062873D02*
X171752723Y-67062873D01*
X171752723Y-67062873D02*
X171935722Y-67245872D01*
X156595333Y-69834922D02*
X155504856Y-70925399D01*
X156595333Y-67756171D02*
X156595333Y-69834922D01*
X155504856Y-70925399D02*
X155023088Y-70925399D01*
X157613888Y-71073172D02*
X157613888Y-70853477D01*
X157613888Y-70853477D02*
X156595333Y-69834922D01*
X155458683Y-67106173D02*
X154487083Y-68077773D01*
X155023088Y-74379799D02*
X155023088Y-74025399D01*
X154487083Y-68077773D02*
X154487083Y-69260830D01*
X155023088Y-73542199D02*
X155023088Y-74025399D01*
X154487083Y-69260830D02*
X153448288Y-70299625D01*
X153448288Y-70299625D02*
X153448288Y-71967399D01*
X157893888Y-77250599D02*
X155023088Y-74379799D01*
X153448288Y-71967399D02*
X155023088Y-73542199D01*
X156595333Y-67106173D02*
X155458683Y-67106173D01*
X151827083Y-71464830D02*
X153510583Y-73148330D01*
X153510583Y-73148330D02*
X153510583Y-75967294D01*
X151827083Y-71099172D02*
X151827083Y-71464830D01*
X151827083Y-71099172D02*
X151941083Y-70985172D01*
X153906083Y-66967115D02*
X153906083Y-69020172D01*
X153510583Y-75967294D02*
X154793888Y-77250599D01*
X153906083Y-69020172D02*
X151827083Y-71099172D01*
X153395139Y-66456171D02*
X153906083Y-66967115D01*
X152086833Y-66456171D02*
X153395139Y-66456171D01*
X153325083Y-68375271D02*
X151450984Y-68375271D01*
X152086833Y-67106173D02*
X153223483Y-67106173D01*
X148727083Y-71099172D02*
X148727083Y-73639172D01*
X153325083Y-67207773D02*
X153325083Y-68375271D01*
X151450984Y-68375271D02*
X148727083Y-71099172D01*
X153223483Y-67106173D02*
X153325083Y-67207773D01*
X138584701Y-68957560D02*
X139886451Y-70259310D01*
X138584701Y-69021060D02*
X137346451Y-70259310D01*
X138584701Y-67704309D02*
X138584701Y-69021060D01*
X138584701Y-67704309D02*
X138584701Y-68957560D01*
X135263651Y-70082110D02*
X137092451Y-68253310D01*
X137092451Y-67431309D02*
X137469449Y-67054311D01*
X139836851Y-76946999D02*
X135263651Y-72373799D01*
X137092451Y-68253310D02*
X137092451Y-67431309D01*
X135263651Y-72373799D02*
X135263651Y-70082110D01*
X137469449Y-67054311D02*
X138584701Y-67054311D01*
X139836851Y-77148999D02*
X139836851Y-76946999D01*
X133410051Y-71154599D02*
X133638051Y-71154599D01*
X133410051Y-70919710D02*
X133410051Y-71154599D01*
X133638051Y-71154599D02*
X134654051Y-72170599D01*
X136330451Y-66729310D02*
X136330451Y-67999310D01*
X136005450Y-66404309D02*
X136330451Y-66729310D01*
X134076201Y-66404309D02*
X136005450Y-66404309D01*
X134654051Y-75066199D02*
X136736851Y-77148999D01*
X136330451Y-67999310D02*
X133410051Y-70919710D01*
X134654051Y-72170599D02*
X134654051Y-75066199D01*
X135314451Y-67155911D02*
X135314451Y-68193652D01*
X134076201Y-67054311D02*
X135212851Y-67054311D01*
X135314451Y-68193652D02*
X134746793Y-68761310D01*
X134746793Y-68761310D02*
X132703340Y-68761310D01*
X130208451Y-71256199D02*
X130208451Y-73796199D01*
X130208451Y-73796199D02*
X130259251Y-73846999D01*
X135212851Y-67054311D02*
X135314451Y-67155911D01*
X132703340Y-68761310D02*
X130310051Y-71154599D01*
X130310051Y-71154599D02*
X130208451Y-71256199D01*
X190544650Y-109833799D02*
X189846150Y-109833799D01*
X189846150Y-109833799D02*
X188900000Y-110779949D01*
X188900000Y-113100000D02*
X188900000Y-110779949D01*
X188900000Y-110779949D02*
X188004650Y-109884599D01*
X190046150Y-112541499D02*
X191810150Y-110777499D01*
X187724650Y-103913799D02*
X190544650Y-106733799D01*
X188900000Y-113749998D02*
X190015252Y-113749998D01*
X187724650Y-103559399D02*
X187724650Y-103913799D01*
X190015252Y-113749998D02*
X190046150Y-113719100D01*
X191810150Y-110777499D02*
X191810150Y-107999299D01*
X190046150Y-113719100D02*
X190046150Y-112541499D01*
X191810150Y-107999299D02*
X190544650Y-106733799D01*
X134724500Y-111257149D02*
X134584800Y-111257149D01*
X134584800Y-111257149D02*
X133537050Y-110209399D01*
X134584800Y-113095200D02*
X134584800Y-111257149D01*
X136127850Y-109853799D02*
X134724500Y-111257149D01*
X133537050Y-110209399D02*
X133537050Y-109904599D01*
X136583850Y-106753799D02*
X136127850Y-106753799D01*
X135721450Y-113745198D02*
X136766050Y-112700598D01*
X136127850Y-106753799D02*
X136127850Y-106323799D01*
X134584800Y-113745198D02*
X135721450Y-113745198D01*
X136127850Y-106323799D02*
X133358650Y-103554599D01*
X138464650Y-110158599D02*
X138464650Y-108634599D01*
X136766050Y-112700598D02*
X136766050Y-111857199D01*
X136766050Y-111857199D02*
X138464650Y-110158599D01*
X138464650Y-108634599D02*
X136583850Y-106753799D01*
X153793984Y-109833799D02*
X152753184Y-110874599D01*
X152753184Y-110874599D02*
X152803984Y-110925399D01*
X151737184Y-109858599D02*
X152753184Y-110874599D01*
X152803984Y-110925399D02*
X152803984Y-112938550D01*
X152803984Y-112938550D02*
X152693334Y-113049200D01*
X152681285Y-113080098D02*
X152448384Y-113080098D01*
X151737184Y-109833799D02*
X151737184Y-109858599D01*
X152693334Y-113049200D02*
X152693334Y-113068049D01*
X154327984Y-109833799D02*
X153793984Y-109833799D01*
X152693334Y-113068049D02*
X152681285Y-113080098D01*
X156105984Y-108791799D02*
X154327984Y-107013799D01*
X153808586Y-113699198D02*
X154531184Y-112976600D01*
X154531184Y-112449399D02*
X156105984Y-110874599D01*
X156105984Y-110874599D02*
X156105984Y-108791799D01*
X152693334Y-113699198D02*
X153808586Y-113699198D01*
X154327984Y-106733799D02*
X154327984Y-106379399D01*
X154531184Y-112976600D02*
X154531184Y-112449399D01*
X154327984Y-107013799D02*
X154327984Y-106733799D01*
X154327984Y-106379399D02*
X151507984Y-103559399D01*
X170948118Y-111280999D02*
X170820518Y-111280999D01*
X172446118Y-109782999D02*
X170948118Y-111280999D01*
X170922118Y-111382599D02*
X170820518Y-111280999D01*
X169906118Y-110366599D02*
X169906118Y-109833799D01*
X170801468Y-112998400D02*
X170922118Y-112877750D01*
X170820518Y-111280999D02*
X169906118Y-110366599D01*
X170922118Y-112877750D02*
X170922118Y-111382599D01*
X171938118Y-113648398D02*
X173001818Y-112584698D01*
X173970118Y-110856883D02*
X173970118Y-108206999D01*
X172446118Y-106430199D02*
X169575318Y-103559399D01*
X173970118Y-108206999D02*
X172446118Y-106682999D01*
X173001818Y-112584698D02*
X173001818Y-111825183D01*
X172446118Y-106682999D02*
X172446118Y-106430199D01*
X173001818Y-111825183D02*
X173970118Y-110856883D01*
X170801468Y-113648398D02*
X171938118Y-113648398D01*
X191681350Y-112023899D02*
X194074650Y-109630599D01*
X194074650Y-109630599D02*
X194074650Y-109604599D01*
X192100194Y-114400000D02*
X191681350Y-113981156D01*
X193408500Y-114400000D02*
X192100194Y-114400000D01*
X191681350Y-113981156D02*
X191681350Y-112023899D01*
X137347050Y-112435741D02*
X138862192Y-110920599D01*
X138862192Y-110920599D02*
X139277450Y-110920599D01*
X139277450Y-110030999D02*
X139708650Y-109599799D01*
X137347050Y-113957256D02*
X137347050Y-112435741D01*
X139277450Y-110920599D02*
X139277450Y-110030999D01*
X136458650Y-103554599D02*
X138359318Y-105455267D01*
X138359318Y-107707609D02*
X139708650Y-109056941D01*
X139093300Y-114395200D02*
X137784994Y-114395200D01*
X137784994Y-114395200D02*
X137347050Y-113957256D01*
X138359318Y-105455267D02*
X138359318Y-107707609D01*
X139708650Y-109056941D02*
X139708650Y-109599799D01*
X157857984Y-109553799D02*
X156359984Y-108055799D01*
X157857984Y-110028141D02*
X157857984Y-109553799D01*
X155343984Y-112542141D02*
X157857984Y-110028141D01*
X156359984Y-105311399D02*
X154607984Y-103559399D01*
X157201834Y-114349200D02*
X155893528Y-114349200D01*
X155343984Y-113799656D02*
X155343984Y-112542141D01*
X156359984Y-108055799D02*
X156359984Y-105311399D01*
X155893528Y-114349200D02*
X155343984Y-113799656D01*
X174478118Y-107893341D02*
X174478118Y-105362199D01*
X174551118Y-107966341D02*
X174478118Y-107893341D01*
X174478118Y-105362199D02*
X172675318Y-103559399D01*
X176026918Y-109502999D02*
X174551118Y-108027199D01*
X173582818Y-112065841D02*
X176026918Y-109621741D01*
X174001662Y-114298400D02*
X173582818Y-113879556D01*
X174551118Y-108027199D02*
X174551118Y-107966341D01*
X173582818Y-113879556D02*
X173582818Y-112065841D01*
X176026918Y-109621741D02*
X176026918Y-109502999D01*
X175309968Y-114298400D02*
X174001662Y-114298400D01*
X192598651Y-112144599D02*
X194811850Y-112144599D01*
X192262350Y-113740498D02*
X192262350Y-112480900D01*
X192262350Y-112480900D02*
X192598651Y-112144599D01*
X197174650Y-109604599D02*
X197174650Y-106810599D01*
X194811850Y-112144599D02*
X194811850Y-111967399D01*
X192271850Y-113749998D02*
X192262350Y-113740498D01*
X194811850Y-111967399D02*
X197174650Y-109604599D01*
X193408500Y-113749998D02*
X192271850Y-113749998D01*
X140471850Y-111936599D02*
X142808650Y-109599799D01*
X139093300Y-113745198D02*
X137956650Y-113745198D01*
X137947150Y-113735698D02*
X137947150Y-112657299D01*
X137947150Y-112657299D02*
X138667850Y-111936599D01*
X142757850Y-106805799D02*
X142757850Y-109548999D01*
X142757850Y-109548999D02*
X142808650Y-109599799D01*
X138667850Y-111936599D02*
X140471850Y-111936599D01*
X137956650Y-113745198D02*
X137947150Y-113735698D01*
X156918784Y-111788999D02*
X159255584Y-111788999D01*
X159255584Y-111788999D02*
X160957984Y-110086599D01*
X156055684Y-113689698D02*
X156055684Y-112652099D01*
X157201834Y-113699198D02*
X156065184Y-113699198D01*
X160957984Y-110086599D02*
X160957984Y-109553799D01*
X156055684Y-112652099D02*
X156918784Y-111788999D01*
X156065184Y-113699198D02*
X156055684Y-113689698D01*
X160957984Y-109553799D02*
X160957984Y-106708999D01*
X177119718Y-112093799D02*
X179126918Y-110086599D01*
X175309968Y-113648398D02*
X174173318Y-113648398D01*
X179126918Y-109502999D02*
X179126918Y-106810599D01*
X174173318Y-113648398D02*
X174163818Y-113638898D01*
X179126918Y-110086599D02*
X179126918Y-109502999D01*
X174163818Y-112306499D02*
X174376518Y-112093799D01*
X174163818Y-113638898D02*
X174163818Y-112306499D01*
X179126918Y-106810599D02*
X179076118Y-106759799D01*
X174376518Y-112093799D02*
X177119718Y-112093799D01*
X116597450Y-109807799D02*
X116546650Y-109807799D01*
X115054400Y-112998400D02*
X115054400Y-111300049D01*
X114057450Y-110163399D02*
X114057450Y-109782999D01*
X115054400Y-111300049D02*
X115124250Y-111230199D01*
X116546650Y-109807799D02*
X115124250Y-111230199D01*
X115124250Y-111230199D02*
X114057450Y-110163399D01*
X113879050Y-103989399D02*
X116597450Y-106707799D01*
X118121450Y-110366599D02*
X118121450Y-108231799D01*
X113879050Y-103508599D02*
X113879050Y-103989399D01*
X115054400Y-113648398D02*
X116169652Y-113648398D01*
X116200550Y-112287499D02*
X118121450Y-110366599D01*
X116169652Y-113648398D02*
X116200550Y-113617500D01*
X116200550Y-113617500D02*
X116200550Y-112287499D01*
X118121450Y-108231799D02*
X116597450Y-106707799D01*
X117422851Y-70925399D02*
X117422851Y-69275447D01*
X120064451Y-70874599D02*
X120064451Y-70392599D01*
X118185075Y-68513223D02*
X118997501Y-67700798D01*
X117422851Y-69275447D02*
X118185075Y-68513223D01*
X120064451Y-70392599D02*
X118185075Y-68513223D01*
X120293651Y-77199799D02*
X120293651Y-76826199D01*
X117492851Y-74025399D02*
X117422851Y-74025399D01*
X116797151Y-68114500D02*
X117860851Y-67050800D01*
X120293651Y-76826199D02*
X117492851Y-74025399D01*
X117406909Y-74025399D02*
X115898851Y-72517341D01*
X117422851Y-74025399D02*
X117406909Y-74025399D01*
X115898851Y-69741057D02*
X116797151Y-68842757D01*
X115898851Y-72517341D02*
X115898851Y-69741057D01*
X117860851Y-67050800D02*
X118997501Y-67050800D01*
X116797151Y-68842757D02*
X116797151Y-68114500D01*
X100796433Y-69700449D02*
X101691783Y-70595799D01*
X99100983Y-70772999D02*
X99723883Y-70772999D01*
X99723883Y-70772999D02*
X100796433Y-69700449D01*
X100796433Y-67659198D02*
X100796433Y-69700449D01*
X101691783Y-70595799D02*
X101691783Y-70823799D01*
X99100983Y-73872999D02*
X99100983Y-74278199D01*
X97830983Y-72602999D02*
X99100983Y-73872999D01*
X100796433Y-67009200D02*
X99537982Y-67009200D01*
X97830983Y-70112195D02*
X97830983Y-72602999D01*
X99100983Y-74278199D02*
X101920983Y-77098199D01*
X99537982Y-67009200D02*
X99537982Y-68405196D01*
X99537982Y-68405196D02*
X97830983Y-70112195D01*
X96834134Y-112998400D02*
X96834134Y-110881549D01*
X97881884Y-109833799D02*
X96834134Y-110881549D01*
X98377184Y-109833799D02*
X97881884Y-109833799D01*
X96834134Y-110881549D02*
X95786384Y-109833799D01*
X98377184Y-107013799D02*
X98377184Y-106733799D01*
X97970784Y-113648398D02*
X99034484Y-112584698D01*
X100561584Y-109198199D02*
X98377184Y-107013799D01*
X98377184Y-106733799D02*
X98377184Y-106430199D01*
X99034484Y-111538099D02*
X100561584Y-110010999D01*
X100561584Y-110010999D02*
X100561584Y-109198199D01*
X96834134Y-113648398D02*
X97970784Y-113648398D01*
X99034484Y-112584698D02*
X99034484Y-111538099D01*
X98377184Y-106430199D02*
X95506384Y-103559399D01*
X118254594Y-114298400D02*
X117835750Y-113879556D01*
X118832650Y-108208199D02*
X118832650Y-105362199D01*
X117835750Y-113879556D02*
X117835750Y-111896299D01*
X118832650Y-105362199D02*
X116979050Y-103508599D01*
X117835750Y-111896299D02*
X120178250Y-109553799D01*
X120178250Y-109553799D02*
X118832650Y-108208199D01*
X119562900Y-114298400D02*
X118254594Y-114298400D01*
X113892851Y-71154599D02*
X113892851Y-71332999D01*
X113892851Y-70925399D02*
X113892851Y-71154599D01*
X115136851Y-75142999D02*
X117193651Y-77199799D01*
X114489001Y-66400798D02*
X115775909Y-66400798D01*
X113892851Y-71332999D02*
X115136851Y-72576999D01*
X116216151Y-66841040D02*
X116216151Y-68602099D01*
X115136851Y-72576999D02*
X115136851Y-75142999D01*
X116216151Y-68602099D02*
X113892851Y-70925399D01*
X115775909Y-66400798D02*
X116216151Y-66841040D01*
X95621783Y-71231399D02*
X96865783Y-72475399D01*
X98338983Y-67101942D02*
X98338983Y-68195056D01*
X95621783Y-71154599D02*
X95621783Y-71231399D01*
X95621783Y-70912256D02*
X95621783Y-71154599D01*
X96865783Y-75142999D02*
X98820983Y-77098199D01*
X96287933Y-66359198D02*
X97596239Y-66359198D01*
X97596239Y-66359198D02*
X98338983Y-67101942D01*
X98338983Y-68195056D02*
X95621783Y-70912256D01*
X96865783Y-72475399D02*
X96865783Y-75142999D01*
X98606384Y-103559399D02*
X98606384Y-105032195D01*
X101882384Y-109553799D02*
X101907184Y-109553799D01*
X100034328Y-114298400D02*
X99615484Y-113879556D01*
X100510784Y-106936595D02*
X100510784Y-108182199D01*
X99615484Y-111845499D02*
X101907184Y-109553799D01*
X98606384Y-105032195D02*
X100510784Y-106936595D01*
X99615484Y-113879556D02*
X99615484Y-111845499D01*
X101342634Y-114298400D02*
X100034328Y-114298400D01*
X100510784Y-108182199D02*
X101882384Y-109553799D01*
X123176650Y-106759799D02*
X123176650Y-109452199D01*
X119035850Y-111941399D02*
X120890650Y-111941399D01*
X118416750Y-113638898D02*
X118416750Y-112560499D01*
X118426250Y-113648398D02*
X118416750Y-113638898D01*
X123176650Y-109452199D02*
X123278250Y-109553799D01*
X119562900Y-113648398D02*
X118426250Y-113648398D01*
X118416750Y-112560499D02*
X119035850Y-111941399D01*
X120890650Y-111941399D02*
X123278250Y-109553799D01*
X115635151Y-68319898D02*
X115289650Y-68665399D01*
X115604253Y-67050800D02*
X115635151Y-67081698D01*
X114489001Y-67050800D02*
X115604253Y-67050800D01*
X110792851Y-70826199D02*
X110792851Y-71154599D01*
X115635151Y-67081698D02*
X115635151Y-68319898D01*
X112953651Y-68665399D02*
X110792851Y-70826199D01*
X110792851Y-71154599D02*
X110792851Y-73999399D01*
X115289650Y-68665399D02*
X112953651Y-68665399D01*
X94756983Y-68919399D02*
X92521783Y-71154599D01*
X92521783Y-71154599D02*
X92521783Y-73897799D01*
X97434083Y-67018700D02*
X97434083Y-68278298D01*
X96287933Y-67009200D02*
X97424583Y-67009200D01*
X97424583Y-67009200D02*
X97434083Y-67018700D01*
X96792982Y-68919399D02*
X94756983Y-68919399D01*
X97434083Y-68278298D02*
X96792982Y-68919399D01*
X103914384Y-111941399D02*
X104423884Y-111431899D01*
X100196484Y-113638898D02*
X100196484Y-112509699D01*
X101342634Y-113648398D02*
X100205984Y-113648398D01*
X100196484Y-112509699D02*
X100764784Y-111941399D01*
X104956384Y-109502999D02*
X105007184Y-109553799D01*
X104423884Y-111431899D02*
X104423884Y-109553799D01*
X100764784Y-111941399D02*
X103914384Y-111941399D01*
X100205984Y-113648398D02*
X100196484Y-113638898D01*
X104956384Y-106810599D02*
X104956384Y-109502999D01*
M02*
