G04 #@! TF.GenerationSoftware,KiCad,Pcbnew,7.0.5*
G04 #@! TF.CreationDate,2023-07-06T16:54:56+01:00*
G04 #@! TF.ProjectId,ffpcbBoard,66667063-6242-46f6-9172-642e6b696361,rev?*
G04 #@! TF.SameCoordinates,Original*
G04 #@! TF.FileFunction,Paste,Top*
G04 #@! TF.FilePolarity,Positive*
%FSLAX46Y46*%
G04 Gerber Fmt 4.6, Leading zero omitted, Abs format (unit mm)*
G04 Created by KiCad (PCBNEW 7.0.5) date 2023-07-06 16:54:56*
%MOMM*%
%LPD*%
G01*
G04 APERTURE LIST*
G04 Aperture macros list*
%AMRoundRect*
0 Rectangle with rounded corners*
0 $1 Rounding radius*
0 $2 $3 $4 $5 $6 $7 $8 $9 X,Y pos of 4 corners*
0 Add a 4 corners polygon primitive as box body*
4,1,4,$2,$3,$4,$5,$6,$7,$8,$9,$2,$3,0*
0 Add four circle primitives for the rounded corners*
1,1,$1+$1,$2,$3*
1,1,$1+$1,$4,$5*
1,1,$1+$1,$6,$7*
1,1,$1+$1,$8,$9*
0 Add four rect primitives between the rounded corners*
20,1,$1+$1,$2,$3,$4,$5,0*
20,1,$1+$1,$4,$5,$6,$7,0*
20,1,$1+$1,$6,$7,$8,$9,0*
20,1,$1+$1,$8,$9,$2,$3,0*%
G04 Aperture macros list end*
%ADD10R,1.508798X1.850796*%
%ADD11R,1.850796X1.508798*%
%ADD12RoundRect,0.250000X-0.400000X-0.625000X0.400000X-0.625000X0.400000X0.625000X-0.400000X0.625000X0*%
%ADD13R,1.738275X2.413000*%
%ADD14R,1.778000X0.939800*%
%ADD15RoundRect,0.250000X-0.625000X0.400000X-0.625000X-0.400000X0.625000X-0.400000X0.625000X0.400000X0*%
%ADD16RoundRect,0.250000X0.400000X0.625000X-0.400000X0.625000X-0.400000X-0.625000X0.400000X-0.625000X0*%
%ADD17RoundRect,0.250000X0.625000X-0.400000X0.625000X0.400000X-0.625000X0.400000X-0.625000X-0.400000X0*%
%ADD18R,1.511300X0.457200*%
%ADD19RoundRect,0.250000X0.650000X-1.000000X0.650000X1.000000X-0.650000X1.000000X-0.650000X-1.000000X0*%
%ADD20R,1.511300X0.355600*%
%ADD21RoundRect,0.250000X-0.362500X-0.700000X0.362500X-0.700000X0.362500X0.700000X-0.362500X0.700000X0*%
%ADD22RoundRect,0.250000X-0.625000X0.375000X-0.625000X-0.375000X0.625000X-0.375000X0.625000X0.375000X0*%
%ADD23R,1.778000X0.965200*%
%ADD24R,1.778000X3.251200*%
%ADD25R,0.355600X1.511300*%
G04 APERTURE END LIST*
G36*
X199326918Y-102114500D02*
G01*
X197548918Y-102114500D01*
X197548918Y-98914100D01*
X199326918Y-98914100D01*
X199326918Y-102114500D01*
G37*
G36*
X214551718Y-121926500D02*
G01*
X212773718Y-121926500D01*
X212773718Y-118726100D01*
X214551718Y-118726100D01*
X214551718Y-121926500D01*
G37*
D10*
X139683850Y-103605399D03*
X142692646Y-103605399D03*
D11*
X92789184Y-107033401D03*
X92789184Y-110042197D03*
D10*
X96767738Y-90557500D03*
X99776534Y-90557500D03*
D12*
X184503651Y-73943973D03*
X187603651Y-73943973D03*
D13*
X201433055Y-111131500D03*
X203911181Y-111131500D03*
D14*
X205077518Y-98214300D03*
X205077518Y-100514300D03*
X205077518Y-102814300D03*
D15*
X175537326Y-70925399D03*
X175537326Y-74025399D03*
D16*
X179076118Y-106759799D03*
X175976118Y-106759799D03*
D17*
X116597450Y-109807799D03*
X116597450Y-106707799D03*
D16*
X157893888Y-77250599D03*
X154793888Y-77250599D03*
X169518126Y-71154599D03*
X166418126Y-71154599D03*
X122637318Y-94164300D03*
X119537318Y-94164300D03*
X151543888Y-71306999D03*
X148443888Y-71306999D03*
D12*
X209808918Y-54641900D03*
X212908918Y-54641900D03*
X130259251Y-73846999D03*
X133359251Y-73846999D03*
X209808918Y-67341900D03*
X212908918Y-67341900D03*
D10*
X120255050Y-103508599D03*
X123263846Y-103508599D03*
D12*
X101907184Y-109553799D03*
X105007184Y-109553799D03*
D17*
X197769918Y-91116900D03*
X197769918Y-88016900D03*
D10*
X200576821Y-119411900D03*
X203585617Y-119411900D03*
D18*
X188900000Y-113100000D03*
X188900000Y-113749998D03*
X188900000Y-114400000D03*
X188900000Y-115049998D03*
X193408500Y-115049998D03*
X193408500Y-114400000D03*
X193408500Y-113749998D03*
X193408500Y-113100000D03*
D11*
X196731651Y-73751371D03*
X196731651Y-70742575D03*
X193274118Y-88646702D03*
X193274118Y-91655498D03*
D12*
X92521783Y-73897799D03*
X95621783Y-73897799D03*
X209808918Y-72421900D03*
X212908918Y-72421900D03*
D15*
X216337318Y-113848700D03*
X216337318Y-116948700D03*
D13*
X201382255Y-106915100D03*
X203860381Y-106915100D03*
D12*
X209808918Y-64801900D03*
X212908918Y-64801900D03*
D17*
X188004650Y-109884599D03*
X188004650Y-106784599D03*
D15*
X191133651Y-70869973D03*
X191133651Y-73969973D03*
D16*
X133410051Y-71154599D03*
X130310051Y-71154599D03*
D12*
X133358650Y-103554599D03*
X136458650Y-103554599D03*
X194074650Y-109604599D03*
X197174650Y-109604599D03*
D11*
X160914518Y-86614702D03*
X160914518Y-83605906D03*
X113893320Y-86360702D03*
X113893320Y-89369498D03*
D17*
X156952118Y-95155500D03*
X156952118Y-92055500D03*
X119887720Y-89719900D03*
X119887720Y-86619900D03*
D12*
X157857984Y-109553799D03*
X160957984Y-109553799D03*
X138739718Y-94316700D03*
X141839718Y-94316700D03*
X139708650Y-109599799D03*
X142808650Y-109599799D03*
D16*
X113892851Y-71154599D03*
X110792851Y-71154599D03*
D18*
X96834134Y-112998400D03*
X96834134Y-113648398D03*
X96834134Y-114298400D03*
X96834134Y-114948398D03*
X101342634Y-114948398D03*
X101342634Y-114298400D03*
X101342634Y-113648398D03*
X101342634Y-112998400D03*
D17*
X190544650Y-109833799D03*
X190544650Y-106733799D03*
X104342920Y-86875100D03*
X104342920Y-83775100D03*
D16*
X120293651Y-77199799D03*
X117193651Y-77199799D03*
D15*
X157613888Y-71073172D03*
X157613888Y-74173172D03*
D11*
X178534526Y-73827397D03*
X178534526Y-70818601D03*
D17*
X158018918Y-86666702D03*
X158018918Y-83566702D03*
D15*
X172946526Y-70874599D03*
X172946526Y-73974599D03*
D10*
X133364449Y-77199799D03*
X130355653Y-77199799D03*
D15*
X193673651Y-70869973D03*
X193673651Y-73969973D03*
D18*
X156595333Y-67756171D03*
X156595333Y-67106173D03*
X156595333Y-66456171D03*
X156595333Y-65806173D03*
X152086833Y-65806173D03*
X152086833Y-66456171D03*
X152086833Y-67106173D03*
X152086833Y-67756171D03*
D16*
X212908918Y-74961900D03*
X209808918Y-74961900D03*
X95621783Y-71154599D03*
X92521783Y-71154599D03*
D15*
X136940051Y-70900599D03*
X136940051Y-74000599D03*
D10*
X194120252Y-104019500D03*
X197129048Y-104019500D03*
D12*
X187724650Y-103559399D03*
X190824650Y-103559399D03*
D15*
X117422851Y-70925399D03*
X117422851Y-74025399D03*
D16*
X193963651Y-77148999D03*
X190863651Y-77148999D03*
D19*
X216388118Y-102051500D03*
X216388118Y-106051500D03*
D11*
X166858118Y-106982601D03*
X166858118Y-109991397D03*
D16*
X160957984Y-106708999D03*
X157857984Y-106708999D03*
D20*
X187578168Y-94084100D03*
X187578168Y-94734101D03*
X187578168Y-95384099D03*
X187578168Y-96034101D03*
X187578168Y-96684099D03*
X187578168Y-97334098D03*
X187578168Y-97984099D03*
X187578168Y-98634098D03*
X187578168Y-99284099D03*
X187578168Y-99934098D03*
X193585268Y-99934100D03*
X193585268Y-99284102D03*
X193585268Y-98634101D03*
X193585268Y-97984102D03*
X193585268Y-97334101D03*
X193585268Y-96684102D03*
X193585268Y-96034101D03*
X193585268Y-95384102D03*
X193585268Y-94734101D03*
X193585268Y-94084102D03*
D10*
X113796449Y-77199799D03*
X110787653Y-77199799D03*
D17*
X136127850Y-109853799D03*
X136127850Y-106753799D03*
D12*
X209808918Y-62261900D03*
X212908918Y-62261900D03*
D15*
X139480051Y-70900599D03*
X139480051Y-74000599D03*
D11*
X175138518Y-96583098D03*
X175138518Y-93574302D03*
D15*
X187279718Y-88702700D03*
X187279718Y-91802700D03*
D11*
X160712688Y-73873570D03*
X160712688Y-70864774D03*
X185007450Y-107002203D03*
X185007450Y-110010999D03*
D10*
X200576821Y-116262300D03*
X203585617Y-116262300D03*
D14*
X207023118Y-118026300D03*
X207023118Y-120326300D03*
X207023118Y-122626300D03*
D16*
X123176650Y-106759799D03*
X120076650Y-106759799D03*
D15*
X99100983Y-70772999D03*
X99100983Y-73872999D03*
D16*
X187603651Y-71149973D03*
X184503651Y-71149973D03*
D12*
X209808918Y-57181900D03*
X212908918Y-57181900D03*
X209808918Y-59721900D03*
X212908918Y-59721900D03*
D10*
X157852786Y-103610199D03*
X160861582Y-103610199D03*
D11*
X184072959Y-91421100D03*
X184072959Y-94429896D03*
D10*
X151527481Y-77301399D03*
X148518685Y-77301399D03*
D17*
X154327984Y-109833799D03*
X154327984Y-106733799D03*
D11*
X117042920Y-86360702D03*
X117042920Y-89369498D03*
D10*
X211034516Y-104273500D03*
X208025720Y-104273500D03*
D18*
X115054400Y-112998400D03*
X115054400Y-113648398D03*
X115054400Y-114298400D03*
X115054400Y-114948398D03*
X119562900Y-114948398D03*
X119562900Y-114298400D03*
X119562900Y-113648398D03*
X119562900Y-112998400D03*
D11*
X154158118Y-92050302D03*
X154158118Y-95059098D03*
D21*
X204842618Y-95434300D03*
X201517618Y-95434300D03*
D12*
X110792851Y-73999399D03*
X113892851Y-73999399D03*
D16*
X104956384Y-106810599D03*
X101856384Y-106810599D03*
D10*
X169610518Y-77148999D03*
X166601722Y-77148999D03*
D12*
X95506384Y-103559399D03*
X98606384Y-103559399D03*
X166418126Y-73999399D03*
X169518126Y-73999399D03*
D18*
X152693334Y-113049200D03*
X152693334Y-113699198D03*
X152693334Y-114349200D03*
X152693334Y-114999198D03*
X157201834Y-114999198D03*
X157201834Y-114349200D03*
X157201834Y-113699198D03*
X157201834Y-113049200D03*
X134584800Y-113095200D03*
X134584800Y-113745198D03*
X134584800Y-114395200D03*
X134584800Y-115045198D03*
X139093300Y-115045198D03*
X139093300Y-114395200D03*
X139093300Y-113745198D03*
X139093300Y-113095200D03*
D11*
X190226118Y-88646702D03*
X190226118Y-91655498D03*
X111009450Y-106881001D03*
X111009450Y-109889797D03*
D16*
X175817326Y-77199799D03*
X172717326Y-77199799D03*
D15*
X120064451Y-70874599D03*
X120064451Y-73974599D03*
D11*
X181005264Y-91392203D03*
X181005264Y-94400999D03*
D10*
X203585617Y-122561500D03*
X200576821Y-122561500D03*
D18*
X170801468Y-112998400D03*
X170801468Y-113648398D03*
X170801468Y-114298400D03*
X170801468Y-114948398D03*
X175309968Y-114948398D03*
X175309968Y-114298400D03*
X175309968Y-113648398D03*
X175309968Y-112998400D03*
D11*
X104739783Y-73694599D03*
X104739783Y-70685803D03*
D12*
X209808918Y-69881900D03*
X212908918Y-69881900D03*
D17*
X172446118Y-109782999D03*
X172446118Y-106682999D03*
X178084918Y-95612700D03*
X178084918Y-92512700D03*
D16*
X212908918Y-80041900D03*
X209808918Y-80041900D03*
D12*
X176026918Y-109502999D03*
X179126918Y-109502999D03*
D11*
X154920118Y-83566702D03*
X154920118Y-86575498D03*
X130590650Y-106997403D03*
X130590650Y-110006199D03*
D18*
X192752901Y-67679972D03*
X192752901Y-67029974D03*
X192752901Y-66379972D03*
X192752901Y-65729974D03*
X188244401Y-65729974D03*
X188244401Y-66379972D03*
X188244401Y-67029974D03*
X188244401Y-67679972D03*
D20*
X104609436Y-89929498D03*
X104609436Y-90579499D03*
X104609436Y-91229497D03*
X104609436Y-91879499D03*
X104609436Y-92529497D03*
X104609436Y-93179496D03*
X104609436Y-93829497D03*
X104609436Y-94479496D03*
X104609436Y-95129497D03*
X104609436Y-95779496D03*
X110616536Y-95779498D03*
X110616536Y-95129500D03*
X110616536Y-94479499D03*
X110616536Y-93829500D03*
X110616536Y-93179499D03*
X110616536Y-92529500D03*
X110616536Y-91879499D03*
X110616536Y-91229500D03*
X110616536Y-90579499D03*
X110616536Y-89929500D03*
D17*
X133537050Y-109904599D03*
X133537050Y-106804599D03*
D11*
X148689184Y-106912199D03*
X148689184Y-109920995D03*
D22*
X216337318Y-111566300D03*
X216337318Y-108766300D03*
D18*
X174678370Y-67712871D03*
X174678370Y-67062873D03*
X174678370Y-66412871D03*
X174678370Y-65762873D03*
X170169870Y-65762873D03*
X170169870Y-66412871D03*
X170169870Y-67062873D03*
X170169870Y-67712871D03*
D16*
X101920983Y-77098199D03*
X98820983Y-77098199D03*
D12*
X151507984Y-103559399D03*
X154607984Y-103559399D03*
D11*
X151770518Y-83566702D03*
X151770518Y-86575498D03*
D10*
X176002118Y-103559399D03*
X179010914Y-103559399D03*
D23*
X206977418Y-109136300D03*
X206977418Y-111436300D03*
X206977418Y-113736300D03*
D24*
X213606818Y-111436300D03*
D17*
X114057450Y-109782999D03*
X114057450Y-106682999D03*
D10*
X95626981Y-77047399D03*
X92618185Y-77047399D03*
X187558049Y-77118973D03*
X184549253Y-77118973D03*
X101224518Y-86036300D03*
X98215722Y-86036300D03*
D15*
X101691783Y-70823799D03*
X101691783Y-73923799D03*
D16*
X212908918Y-52101900D03*
X209808918Y-52101900D03*
D15*
X155023088Y-70925399D03*
X155023088Y-74025399D03*
D18*
X100796433Y-67659198D03*
X100796433Y-67009200D03*
X100796433Y-66359198D03*
X100796433Y-65709200D03*
X96287933Y-65709200D03*
X96287933Y-66359198D03*
X96287933Y-67009200D03*
X96287933Y-67659198D03*
D11*
X211562118Y-98298702D03*
X211562118Y-101307498D03*
X208172920Y-98310703D03*
X208172920Y-101319499D03*
D17*
X98377184Y-109833799D03*
X98377184Y-106733799D03*
D12*
X209808918Y-77501900D03*
X212908918Y-77501900D03*
D16*
X197174650Y-106810599D03*
X194074650Y-106810599D03*
D10*
X101952786Y-103610199D03*
X104961582Y-103610199D03*
D18*
X138584701Y-67704309D03*
X138584701Y-67054311D03*
X138584701Y-66404309D03*
X138584701Y-65754311D03*
X134076201Y-65754311D03*
X134076201Y-66404309D03*
X134076201Y-67054311D03*
X134076201Y-67704309D03*
D17*
X151737184Y-109833799D03*
X151737184Y-106733799D03*
D16*
X139810851Y-77148999D03*
X136710851Y-77148999D03*
D25*
X148345518Y-85471150D03*
X147695517Y-85471150D03*
X147045519Y-85471150D03*
X146395517Y-85471150D03*
X145745519Y-85471150D03*
X145095520Y-85471150D03*
X144445519Y-85471150D03*
X143795520Y-85471150D03*
X143145519Y-85471150D03*
X142495520Y-85471150D03*
X142495518Y-91478250D03*
X143145516Y-91478250D03*
X143795517Y-91478250D03*
X144445516Y-91478250D03*
X145095517Y-91478250D03*
X145745516Y-91478250D03*
X146395517Y-91478250D03*
X147045516Y-91478250D03*
X147695517Y-91478250D03*
X148345516Y-91478250D03*
D18*
X118997501Y-67700798D03*
X118997501Y-67050800D03*
X118997501Y-66400798D03*
X118997501Y-65750800D03*
X114489001Y-65750800D03*
X114489001Y-66400798D03*
X114489001Y-67050800D03*
X114489001Y-67700798D03*
D12*
X113879050Y-103508599D03*
X116979050Y-103508599D03*
D11*
X123112451Y-73730197D03*
X123112451Y-70721401D03*
D17*
X95786384Y-109833799D03*
X95786384Y-106733799D03*
X169906118Y-109833799D03*
X169906118Y-106733799D03*
D12*
X120178250Y-109553799D03*
X123278250Y-109553799D03*
D11*
X151059318Y-92050302D03*
X151059318Y-95059098D03*
D16*
X142757850Y-106805799D03*
X139657850Y-106805799D03*
D12*
X148393088Y-74100999D03*
X151493088Y-74100999D03*
D11*
X142629651Y-73776597D03*
X142629651Y-70767801D03*
D12*
X169575318Y-103559399D03*
X172675318Y-103559399D03*
D10*
X101224518Y-82886700D03*
X98215722Y-82886700D03*
M02*
