M48
; DRILL file {KiCad 7.0.5} date Thu Jul  6 16:56:37 2023
; FORMAT={-:-/ absolute / metric / decimal}
; #@! TF.CreationDate,2023-07-06T16:56:37+01:00
; #@! TF.GenerationSoftware,Kicad,Pcbnew,7.0.5
; #@! TF.FileFunction,Plated,1,2,PTH
FMAT,2
METRIC
; #@! TA.AperFunction,Plated,PTH,ViaDrill
T1C0.400
; #@! TA.AperFunction,Plated,PTH,ComponentDrill
T2C1.000
; #@! TA.AperFunction,Plated,PTH,ComponentDrill
T3C1.020
%
G90
G05
T1
X92.618Y-77.047
X92.789Y-110.042
X99.777Y-90.557
X104.74Y-70.686
X104.93Y-103.661
X110.788Y-77.2
X111.009Y-109.96
X117.023Y-89.389
X119.868Y-89.795
X122.637Y-94.164
X123.112Y-70.721
X123.264Y-103.509
X130.356Y-77.2
X130.591Y-110.006
X138.74Y-94.317
X142.63Y-70.768
X142.693Y-103.605
X148.519Y-77.301
X148.689Y-109.921
X154.209Y-95.129
X154.869Y-86.615
X156.952Y-95.155
X160.713Y-70.865
X160.862Y-103.61
X166.602Y-77.149
X166.858Y-109.991
X178.535Y-70.819
X179.011Y-103.559
X181.031Y-94.469
X181.031Y-94.469
X181.072Y-97.143
X181.772Y-102.043
X184.626Y-77.093
X185.007Y-110.011
X185.372Y-88.643
X190.226Y-91.675
X195.581Y-87.753
X195.662Y-93.428
X195.944Y-91.093
X196.171Y-86.946
X196.696Y-86.095
X196.732Y-70.647
X197.08Y-93.398
X197.129Y-104.019
X197.362Y-85.35
X198.027Y-84.604
X198.862Y-84.055
X199.624Y-83.395
X200.539Y-122.561
X201.555Y-111.182
X202.028Y-83.531
X202.046Y-84.554
X202.068Y-85.822
X202.072Y-82.293
X202.072Y-86.993
X202.072Y-88.043
X202.072Y-89.093
X202.081Y-90.202
X202.122Y-80.943
X203.772Y-93.543
X203.993Y-106.915
X208.26Y-101.327
X213.607Y-111.436
T2
X218.7Y-52.15
X218.7Y-54.69
X218.7Y-57.23
X218.7Y-59.77
X218.7Y-62.31
X218.7Y-64.85
X218.7Y-67.39
X218.7Y-69.93
X218.7Y-72.47
X218.7Y-75.01
X218.7Y-77.55
X218.7Y-80.09
X218.7Y-82.63
X218.7Y-85.17
T3
X94.021Y-60.385
X95.888Y-120.323
X96.561Y-60.385
X98.428Y-120.323
X99.101Y-60.385
X100.968Y-120.323
X101.641Y-60.385
X103.508Y-120.323
X112.241Y-60.385
X114.159Y-120.323
X114.781Y-60.385
X116.699Y-120.323
X117.321Y-60.385
X119.239Y-120.323
X119.861Y-60.385
X121.779Y-120.323
X131.657Y-60.385
X133.649Y-120.323
X134.197Y-60.385
X136.189Y-120.323
X136.737Y-60.385
X138.729Y-120.323
X139.277Y-60.385
X141.269Y-120.323
X149.791Y-60.385
X151.89Y-120.323
X152.331Y-60.385
X154.43Y-120.323
X154.871Y-60.385
X156.97Y-120.323
X157.411Y-60.385
X159.51Y-120.323
X167.867Y-60.385
X170.008Y-120.323
X170.407Y-60.385
X172.548Y-120.323
X172.947Y-60.385
X175.088Y-120.323
X175.487Y-60.385
X177.628Y-120.323
X185.962Y-60.385
X188.106Y-120.323
X188.502Y-60.385
X190.646Y-120.323
X191.042Y-60.385
X193.186Y-120.323
X193.582Y-60.385
X195.726Y-120.323
T2
X208.565Y-90.527G85X208.565Y-93.027
G05
X210.565Y-87.077G85X212.565Y-87.077
G05
X214.565Y-90.777G85X214.565Y-92.777
G05
T0
M30
